<svg width="30" height="48" viewBox="0 0 30 48" fill="none" xmlns="http://www.w3.org/2000/svg">
<path fill-rule="evenodd" clip-rule="evenodd" d="M2 1H28C28.5523 1 29 1.44772 29 2V46C29 46.5523 28.5523 47 28 47H2C1.44772 47 1 46.5523 1 46V2C1 1.44772 1.44772 1 2 1ZM0 2C0 0.895431 0.895431 0 2 0H28C29.1046 0 30 0.895431 30 2V46C30 47.1046 29.1046 48 28 48H2C0.89543 48 0 47.1046 0 46V2ZM3 3L10.5242 3C10.5964 3.77222 10.8393 4.73903 11.3789 5.58203C12.0602 6.64669 13.2109 7.5 15 7.5C15.7596 7.5 16.8769 7.24819 17.8147 6.48853C18.6888 5.78055 19.3695 4.66111 19.4832 3L27 3V45H3V3ZM12.2211 5.04297C11.8046 4.39206 11.5999 3.62789 11.5294 3L12.5 3C12.5 3.41334 12.6199 4.02223 12.9942 4.54215C13.3869 5.08757 14.037 5.5 15 5.5C15.4133 5.5 16.0222 5.38011 16.5422 5.00577C17.0876 4.61307 17.5 3.96296 17.5 3L18.4806 3C18.3716 4.36102 17.8187 5.19837 17.1853 5.71147C16.4565 6.30181 15.5737 6.5 15 6.5C13.5891 6.5 12.7398 5.85331 12.2211 5.04297ZM16.5 3H13.5C13.5 3.25332 13.5801 3.64443 13.8058 3.95785C14.0131 4.24577 14.363 4.5 15 4.5C15.2533 4.5 15.6444 4.41989 15.9578 4.19423C16.2458 3.98693 16.5 3.63704 16.5 3ZM2 3C2 2.44771 2.44772 2 3 2H27C27.5523 2 28 2.44772 28 3V45C28 45.5523 27.5523 46 27 46H3C2.44772 46 2 45.5523 2 45V3ZM12 10H5V9H12V10ZM5 12H9V11H5V12ZM23 26V27H11V26H23ZM11 28V29H19V28H11ZM23 33V34H11V33H23ZM11 35V36H16V35H11ZM20 40H11V39H20V40ZM11 42H18V41H11V42ZM10.7731 13H11H12.5H16H16.2269L16.3763 13.1707L19.7269 17H22.5H22.7071L22.8536 17.1464L23.8536 18.1464L24 18.2929V18.5V21V21.5H23.5H20.937C20.715 22.3626 19.9319 23 19 23C18.0681 23 17.285 22.3626 17.063 21.5H11.937C11.715 22.3626 10.9319 23 10 23C9.06808 23 8.28503 22.3626 8.06301 21.5H6.5H6.38197L6.27639 21.4472L5.27639 20.9472L5 20.809V20.5V17.5V17H5.5H7.27312L10.6237 13.1707L10.7731 13ZM17.063 20.5H11.937C11.715 19.6374 10.9319 19 10 19C9.06808 19 8.28503 19.6374 8.06301 20.5H6.61803L6 20.191V18H7.5H12.5H19.5H22.2929L23 18.7071V20.5H20.937C20.715 19.6374 19.9319 19 19 19C18.0681 19 17.285 19.6374 17.063 20.5ZM8.60188 17H12V14H11.2269L8.60188 17ZM13 14V17H18.3981L15.7731 14H13ZM20 21C20 21.5523 19.5523 22 19 22C18.4477 22 18 21.5523 18 21C18 20.4477 18.4477 20 19 20C19.5523 20 20 20.4477 20 21ZM10 22C10.5523 22 11 21.5523 11 21C11 20.4477 10.5523 20 10 20C9.44772 20 9 20.4477 9 21C9 21.5523 9.44772 22 10 22ZM8 41C8 41.5523 7.55228 42 7 42C6.44772 42 6 41.5523 6 41C6 40.4477 6.44772 40 7 40C7.55228 40 8 40.4477 8 41ZM9 41C9 42.1046 8.10457 43 7 43C5.89543 43 5 42.1046 5 41C5 39.8954 5.89543 39 7 39C8.10457 39 9 39.8954 9 41ZM7 36C7.55228 36 8 35.5523 8 35C8 34.4477 7.55228 34 7 34C6.44772 34 6 34.4477 6 35C6 35.5523 6.44772 36 7 36ZM7 37C8.10457 37 9 36.1046 9 35C9 33.8954 8.10457 33 7 33C5.89543 33 5 33.8954 5 35C5 36.1046 5.89543 37 7 37ZM8 28C8 28.5523 7.55228 29 7 29C6.44772 29 6 28.5523 6 28C6 27.4477 6.44772 27 7 27C7.55228 27 8 27.4477 8 28ZM9 28C9 29.1046 8.10457 30 7 30C5.89543 30 5 29.1046 5 28C5 26.8954 5.89543 26 7 26C8.10457 26 9 26.8954 9 28Z" fill="#FE6B00"/>
</svg>
