<svg width="43" height="44" viewBox="0 0 43 44" fill="none" xmlns="http://www.w3.org/2000/svg">
<path fill-rule="evenodd" clip-rule="evenodd" d="M10.2929 0H10.5H27.5H27.7071L27.8536 0.146447L33.8536 6.14645L34 6.29289V6.5V14H38.5H38.7071L38.8536 14.1464L42.8536 18.1464L43 18.2929V18.5V40.5V40.7071L42.8536 40.8536L39.8536 43.8536L39.7071 44H39.5H23.5H23.2929L23.1464 43.8536L20.1464 40.8536L20 40.7071V40.5V38H19V39.5V42V42.2071L18.8536 42.3536L18.3536 42.8536L18.2071 43H18H5.5C2.46243 43 0 40.5376 0 37.5C0 34.631 2.19675 32.275 5 32.0224V30.5V28V27.7929L5.14645 27.6464L5.64645 27.1464L5.79289 27H6H8V2.5V2.29289L8.14645 2.14645L10.1464 0.146447L10.2929 0ZM9 27H18H18.2071L18.3536 27.1464L18.8536 27.6464L19 27.7929V28V30.5V33.5V36.5V37H20V18.5V18.2929L20.1464 18.1464L24.1464 14.1464L24.2929 14H24.5H33V7H27.5H27V6.5V1H10.7071L9 2.70711V27ZM6 32.0224C6.98574 32.1113 7.89648 32.4602 8.66308 33H18V31H6V32.0224ZM9.74284 34C10.221 34.579 10.583 35.2576 10.793 36H18V34H9.74284ZM10.9776 37C10.9924 37.1647 11 37.3315 11 37.5C11 38.02 10.9278 38.5232 10.793 39H18V37H10.9776ZM10.5 39.7945C10.0919 40.6824 9.45425 41.4429 8.66308 42H17.7929L18 41.7929V40H10.5V39.7945ZM5.5 42C7.98528 42 10 39.9853 10 37.5C10 35.0147 7.98528 33 5.5 33C3.01472 33 1 35.0147 1 37.5C1 39.9853 3.01472 42 5.5 42ZM28 1.70711L32.2929 6H28V1.70711ZM24.7071 15L21 18.7071V37.5V40.2929L23.7071 43H39.2929L42 40.2929V18.7071L38.2929 15H33.5H24.7071ZM29 13H18V12H29V13ZM13 13H16V12H13V13ZM27 10V9H29V10H27ZM13 10H25V9H13V10ZM24.7929 17H25H38H38.2071L38.3536 17.1464L39.8536 18.6464L40 18.7929V19V21.5V21.7071L39.8536 21.8536L38.3536 23.3536L38.2071 23.5H38H25H24.7929L24.6464 23.3536L23.1464 21.8536L23 21.7071V21.5V19V18.7929L23.1464 18.6464L24.6464 17.1464L24.7929 17ZM25.2071 18L24 19.2071V21.2929L25.2071 22.5H37.7929L39 21.2929V19.2071L37.7929 18H25.2071ZM29.5 36H29V36.5V40.5V41H29.5H33.5H34V40.5V36.5V36H33.5H29.5ZM30 40V37H33V40H30ZM23 36H23.5H27.5H28V36.5V40.5V41H27.5H23.5H23V40.5V36.5V36ZM24 37V40H27V37H24ZM35.5 31H35V31.5V40.5V41H35.5H39.5H40V40.5V31.5V31H39.5H35.5ZM39 40H36V32H39V40ZM29 31H29.5H33.5H34V31.5V34.5V35H33.5H29.5H29V34.5V31.5V31ZM33 32H30V34H33V32ZM23.5 31H23V31.5V34.5V35H23.5H27.5H28V34.5V31.5V31H27.5H23.5ZM27 34H24V32H27V34ZM35 25H35.5H39.5H40V25.5V29.5V30H39.5H35.5H35V29.5V25.5V25ZM36 26V29H39V26H36ZM29.5 25H29V25.5V29.5V30H29.5H33.5H34V29.5V25.5V25H33.5H29.5ZM33 29H30V26H33V29ZM23 25H23.5H27.5H28V25.5V29.5V30H27.5H23.5H23V29.5V25.5V25ZM24 29H27V26H24V29ZM5 35V34H6V35H7V36H5.5H5V37H6.5H7V37.5V39.5V40H6.5H6V41H5V40H4V39H5.5H6V38H4.5H4V37.5V35.5V35H4.5H5ZM15 17V16H16V17H17V18H15.5H15V19H16.5H17V19.5V21.5V22H16.5H16V23H15V22H14V21H15.5H16V20H14.5H14V19.5V17.5V17H14.5H15ZM18 30H6V28.2071L6.20711 28H17.7929L18 28.2071V30Z" fill="#FE6B00"/>
</svg>
