<svg width="48" height="51" viewBox="0 0 48 51" fill="none" xmlns="http://www.w3.org/2000/svg">
<path fill-rule="evenodd" clip-rule="evenodd" d="M23.5 0H23V0.5V1H22.5V2H23V4H22.5H22.2929L22.1464 4.14645L20.1464 6.14645L19.8916 6.40127L20.0528 6.72361L21.0528 8.72361L21.191 9H21.5H26.5H26.809L26.9472 8.72361L27.9472 6.72361L28.1084 6.40127L27.8536 6.14645L25.8536 4.14645L25.7071 4H25.5H25V2H25.5V1H25V0.5V0H24.5H23.5ZM21.1084 6.59873L22.7071 5H23.5H24.5H25.2929L26.8916 6.59873L26.191 8H21.809L21.1084 6.59873ZM31.5 8H31V6H30V8H29.5H29.382L29.2764 8.05279L28.2764 8.55279L28 8.69098V9V11.3486L24.084 17.2226L24 17.3486L23.916 17.2226L20 11.3486V9V8.69098L19.7236 8.55279L18.7236 8.05279L18.618 8H18.5H18V6H17V8H16.5H16.382L16.2764 8.05279L15.2764 8.55279L15 8.69098V9V11.2929L14.2038 12.0891L12.2764 13.0528L12 13.191V13.5V15V15.5V17H13V16H16.7427L19 19.1602V22H17.5H17V22.5V24H15V22.5V22.3168L14.8817 22.177L3.88169 9.17703L2.84238 7.94875L3.00248 9.54975L3.47258 14.2507L2.22265 15.084L2 15.2324V15.5V19.8486L1.08397 21.2226L0.899075 21.5L1.08397 21.7774L3.04068 24.7124L4.01924 28.1374L4.05975 28.2792L4.17075 28.3763L8.17075 31.8763L8.27767 31.9698L8.4178 31.9932L14.4178 32.9932L14.5782 33.0199L14.7236 32.9472L16.618 32H17V34.2658L14.1799 36.6159L14 36.7658V37V38.5V39H14.5H16V41H10.238L4 33.3225V31V30.691L3.72361 30.5528L2.72361 30.0528L2.61803 30H2.5H1H0.792893L0.646447 30.1464L0.146447 30.6464L0 30.7929V31V33.5V33.809L0.276393 33.9472L1.27639 34.4472L1.38197 34.5H1.5H2.5H2.61803L2.72361 34.4472L3.36486 34.1266L9.57733 41.7727L11.0528 44.7236L11.191 45H11.5H13V44H11.809L10.809 42H16.5H17V41.5V39H18.5H18.809L18.9472 38.7236L19.809 37H23V39.7658L17.1799 44.6159L17 44.7658V45V49H18V45.2342L21 42.7342V44.691L20.2764 45.0528L20 45.191V45.5V50H21V45.809L21.7236 45.4472L22 45.309V45V43H23V50.5V51H23.5H24H24.5H25V50.5V43H26V45V45.309L26.2764 45.4472L27 45.809V50H28V45.5V45.191L27.7236 45.0528L27 44.691V42.7342L30 45.2342V49H31V45V44.7658L30.8201 44.6159L25 39.7658V37H28.191L29.0528 38.7236L29.191 39H29.5H31V41.5V42H31.5H37.2929L38.1464 42.8536L38.2929 43H38.5H40.5H40.7071L40.8536 42.8536L41.8536 41.8536L42 41.7071V41.5V38.5V38.25L41.8 38.1L40 36.75V35H39V36.75L37.2 38.1L37 38.25V38.5V41H32V39H33.5H34V38.5V37V36.7658L33.8201 36.6159L31 34.2658V32H31.382L33.2764 32.9472L33.4218 33.0199L33.5822 32.9932L39.5822 31.9932L39.7223 31.9698L39.8293 31.8763L43.8293 28.3763L43.9402 28.2792L43.9808 28.1374L44.9593 24.7124L46.916 21.7774L47.1009 21.5L46.916 21.2226L46 19.8486V15.5V15.2324L45.7774 15.084L44.5274 14.2507L44.9975 9.54975L45.1576 7.94875L44.1183 9.17703L33.1183 22.177L33 22.3168V22.5V24H31V22.5V22H30.5H29V19.1602L31.2573 16H35V17H36V15.5V15V13.5V13.191L35.7236 13.0528L33.7962 12.0891L33 11.2929V9V8.69098L32.7236 8.55279L31.7236 8.05279L31.618 8H31.5ZM17 31V29H15.7071L15 29.7071V29.7113V29.717V29.7227V29.7283V29.7341V29.7398V29.7455V29.7513V29.7571V29.7629V29.7687V29.7745V29.7804V29.7862V29.7921V29.798V29.8039V29.8099V29.8158V29.8217V29.8277V29.8337V29.8397V29.8457V29.8518V29.8578V29.8639V29.8699V29.876V29.8821V29.8883V29.8944V29.9005V29.9067V29.9129V29.9191V29.9253V29.9315V29.9377V29.944V29.9502V29.9565V29.9628V29.9691V29.9754V29.9817V29.988V29.9944V30.0007V30.0071V30.0135V30.0199V30.0263V30.0327V30.0391V30.0456V30.052V30.0585V30.065V30.0715V30.078V30.0845V30.091V30.0975V30.1041V30.1106V30.1172V30.1238V30.1303V30.1369V30.1435V30.1502V30.1568V30.1634V30.1701V30.1767V30.1834V30.1901V30.1967V30.2034V30.2101V30.2168V30.2236V30.2303V30.237V30.2438V30.2505V30.2573V30.2641V30.2708V30.2776V30.2844V30.2912V30.298V30.3049V30.3117V30.3185V30.3254V30.3322V30.3391V30.3459V30.3528V30.3597V30.3666V30.3734V30.3803V30.3872V30.3941V30.4011V30.408V30.4149V30.4218V30.4288V30.4357V30.4427V30.4496V30.4566V30.4636V30.4705V30.4775V30.4845V30.4915V30.4985V30.5055V30.5125V30.5195V30.5265V30.5335V30.5405V30.5475V30.5546V30.5616V30.5686V30.5757V30.5827V30.5898V30.5968V30.6039V30.6109V30.618V30.625V30.6321V30.6392V30.6462V30.6533V30.6604V30.6675V30.6745V30.6816V30.6887V30.6958V30.7029V30.71V30.7171V30.7241V30.7312V30.7383V30.7454V30.7525V30.7596V30.7667V30.7738V30.7809V30.788V30.7951V30.8022V30.8093V30.8164V30.8235V30.8306V30.8377V30.8448V30.8519V30.859V30.8661V30.8732V30.8803V30.8874V30.8945V30.9016V30.9087V30.9158V30.9229V30.93V30.9371V30.9442V30.9513V30.9583V30.9654V30.9725V30.9796V30.9867V30.9937V31.0008V31.0079V31.0149V31.022V31.0291V31.0361V31.0432V31.0502V31.0573V31.0643V31.0713V31.0784V31.0854V31.0924V31.0995V31.1065V31.1135V31.1205V31.1275V31.1345V31.1415V31.1485V31.1555V31.1625V31.1695V31.1765V31.1834V31.1904V31.1973V31.2043V31.2113V31.2182V31.2251V31.2321V31.239V31.2459V31.2528V31.2597V31.2666V31.2735V31.2804V31.2873V31.2942V31.301V31.3079V31.3147V31.3216V31.3284V31.3352V31.3421V31.3489V31.3557V31.3625V31.3693V31.3761V31.3828V31.3896V31.3964V31.4031V31.4099V31.4166V31.4233V31.43V31.4367V31.4434V31.4501V31.4568V31.4635V31.4701V31.4768V31.4834V31.49V31.4967V31.5033V31.5099V31.5165V31.5231V31.5296V31.5362V31.5427V31.5493V31.5558V31.5623V31.5688V31.5753V31.5818V31.5883V31.5947V31.6012V31.6076V31.614V31.6205V31.6269V31.6332V31.6396V31.646V31.6523V31.6587V31.665V31.6713V31.6776V31.6839V31.6902V31.691L16.2764 31.0528L16.382 31H16.5H17ZM17 28V25H14.5H14.3333L14.2 24.9L3 16.5V19.7311L13.7756 26.8505L15.5154 28H17ZM18 32V34.2929L19.7071 36H23.5H24H24.5H28.2929L30 34.2929V32V31.5V28.5V24.5V24V23H18V24V24.5V28.5V31.5V32ZM31.5 31H31V29H32.2929L33 29.7071V29.7113V29.717V29.7227V29.7283V29.7341V29.7398V29.7455V29.7513V29.7571V29.7629V29.7687V29.7745V29.7804V29.7862V29.7921V29.798V29.8039V29.8099V29.8158V29.8217V29.8277V29.8337V29.8397V29.8457V29.8518V29.8578V29.8639V29.8699V29.876V29.8821V29.8883V29.8944V29.9005V29.9067V29.9129V29.9191V29.9253V29.9315V29.9377V29.944V29.9502V29.9565V29.9628V29.9691V29.9754V29.9817V29.988V29.9944V30.0007V30.0071V30.0135V30.0199V30.0263V30.0327V30.0391V30.0456V30.052V30.0585V30.065V30.0715V30.078V30.0845V30.091V30.0975V30.1041V30.1106V30.1172V30.1238V30.1303V30.1369V30.1435V30.1502V30.1568V30.1634V30.1701V30.1767V30.1834V30.1901V30.1967V30.2034V30.2101V30.2168V30.2236V30.2303V30.237V30.2438V30.2505V30.2573V30.2641V30.2708V30.2776V30.2844V30.2912V30.298V30.3049V30.3117V30.3185V30.3254V30.3322V30.3391V30.3459V30.3528V30.3597V30.3666V30.3734V30.3803V30.3872V30.3941V30.4011V30.408V30.4149V30.4218V30.4288V30.4357V30.4427V30.4496V30.4566V30.4636V30.4705V30.4775V30.4845V30.4915V30.4985V30.5055V30.5125V30.5195V30.5265V30.5335V30.5405V30.5475V30.5546V30.5616V30.5686V30.5757V30.5827V30.5898V30.5968V30.6039V30.6109V30.618V30.625V30.6321V30.6392V30.6462V30.6533V30.6604V30.6675V30.6745V30.6816V30.6887V30.6958V30.7029V30.71V30.7171V30.7241V30.7312V30.7383V30.7454V30.7525V30.7596V30.7667V30.7738V30.7809V30.788V30.7951V30.8022V30.8093V30.8164V30.8235V30.8306V30.8377V30.8448V30.8519V30.859V30.8661V30.8732V30.8803V30.8874V30.8945V30.9016V30.9087V30.9158V30.9229V30.93V30.9371V30.9442V30.9513V30.9583V30.9654V30.9725V30.9796V30.9867V30.9937V31.0008V31.0079V31.0149V31.022V31.0291V31.0361V31.0432V31.0502V31.0573V31.0643V31.0713V31.0784V31.0854V31.0924V31.0995V31.1065V31.1135V31.1205V31.1275V31.1345V31.1415V31.1485V31.1555V31.1625V31.1695V31.1765V31.1834V31.1904V31.1973V31.2043V31.2113V31.2182V31.2251V31.2321V31.239V31.2459V31.2528V31.2597V31.2666V31.2735V31.2804V31.2873V31.2942V31.301V31.3079V31.3147V31.3216V31.3284V31.3352V31.3421V31.3489V31.3557V31.3625V31.3693V31.3761V31.3828V31.3896V31.3964V31.4031V31.4099V31.4166V31.4233V31.43V31.4367V31.4434V31.4501V31.4568V31.4635V31.4701V31.4768V31.4834V31.49V31.4967V31.5033V31.5099V31.5165V31.5231V31.5296V31.5362V31.5427V31.5493V31.5558V31.5623V31.5688V31.5753V31.5818V31.5883V31.5947V31.6012V31.6076V31.614V31.6205V31.6269V31.6332V31.6396V31.646V31.6523V31.6587V31.665V31.6713V31.6776V31.6839V31.6902V31.691L31.7236 31.0528L31.618 31H31.5ZM32.4846 28H31V25H33.5H33.6667L33.8 24.9L45 16.5V19.7311L34.2244 26.8505L32.4846 28ZM28 22V19V18.8398L28.0931 18.7094L30.5931 15.2094L30.604 15.1942L30.6159 15.1799L32.8236 12.5307L32.2929 12H28.7676L25 17.6514V22H28ZM23 22V17.6514L19.2324 12H15.7071L15.1764 12.5307L17.3841 15.1799L17.396 15.1942L17.4069 15.2094L19.9069 18.7094L20 18.8398V19V22H23ZM29 9.30902V11H32V9.30902L31.382 9H30.5H29.618L29 9.30902ZM35 13.809L33.6306 13.1243L32.0675 15H35V13.809ZM19 11V9.30902L18.382 9H17.5H16.618L16 9.30902V11H19ZM14.3694 13.1243L13 13.809V15H15.9325L14.3694 13.1243ZM15 37.2342L17.4693 35.1764L18.8916 36.5987L18.191 38H16.5H15V37.2342ZM29.1084 36.5987L30.5307 35.1764L33 37.2342V38H31.5H29.809L29.1084 36.5987ZM3 31.309V33.191L2.38197 33.5H1.61803L1 33.191V31.2071L1.20711 31H2.38197L3 31.309ZM21.881 42L23 41.0675V42H21.881ZM26.119 42H25V41.0675L26.119 42ZM38.7071 42L38 41.2929V38.75L39.5 37.625L41 38.75V41.2929L40.2929 42H38.7071ZM45.3602 20.6917L45.8991 21.5L44.084 24.2226L44.0407 24.2876L44.0192 24.3626L43.1319 27.4684L35.9836 26.8867L45.3602 20.6917ZM36.0119 27.8923L42.2808 28.4024L39.4946 30.8403L36.0119 27.8923ZM38.3531 31.1843L34 31.9098V31.9066V31.9009V31.8951V31.8894V31.8836V31.8778V31.8719V31.8661V31.8602V31.8544V31.8485V31.8426V31.8367V31.8307V31.8248V31.8188V31.8128V31.8068V31.8008V31.7948V31.7888V31.7827V31.7766V31.7706V31.7645V31.7583V31.7522V31.7461V31.7399V31.7337V31.7276V31.7214V31.7152V31.7089V31.7027V31.6965V31.6902V31.6839V31.6776V31.6713V31.665V31.6587V31.6523V31.646V31.6396V31.6332V31.6269V31.6205V31.614V31.6076V31.6012V31.5947V31.5883V31.5818V31.5753V31.5688V31.5623V31.5558V31.5493V31.5427V31.5362V31.5296V31.5231V31.5165V31.5099V31.5033V31.4967V31.49V31.4834V31.4768V31.4701V31.4635V31.4568V31.4501V31.4434V31.4367V31.43V31.4233V31.4166V31.4099V31.4031V31.3964V31.3896V31.3828V31.3761V31.3693V31.3625V31.3557V31.3489V31.3421V31.3352V31.3284V31.3216V31.3147V31.3079V31.301V31.2942V31.2873V31.2804V31.2735V31.2666V31.2597V31.2528V31.2459V31.239V31.2321V31.2251V31.2182V31.2113V31.2043V31.1973V31.1904V31.1834V31.1765V31.1695V31.1625V31.1555V31.1485V31.1415V31.1345V31.1275V31.1205V31.1135V31.1065V31.0995V31.0924V31.0854V31.0784V31.0713V31.0643V31.0573V31.0502V31.0432V31.0361V31.0291V31.022V31.0149V31.0079V31.0008V30.9937V30.9867V30.9796V30.9725V30.9654V30.9583V30.9513V30.9442V30.9371V30.93V30.9229V30.9158V30.9087V30.9016V30.8945V30.8874V30.8803V30.8732V30.8661V30.859V30.8519V30.8448V30.8377V30.8306V30.8235V30.8164V30.8093V30.8022V30.7951V30.788V30.7809V30.7738V30.7667V30.7596V30.7525V30.7454V30.7383V30.7312V30.7241V30.7171V30.71V30.7029V30.6958V30.6887V30.6816V30.6745V30.6675V30.6604V30.6533V30.6462V30.6392V30.6321V30.625V30.618V30.6109V30.6039V30.5968V30.5898V30.5827V30.5757V30.5686V30.5616V30.5546V30.5475V30.5405V30.5335V30.5265V30.5195V30.5125V30.5055V30.4985V30.4915V30.4845V30.4775V30.4705V30.4636V30.4566V30.4496V30.4427V30.4357V30.4288V30.4218V30.4149V30.408V30.4011V30.3941V30.3872V30.3803V30.3734V30.3666V30.3597V30.3528V30.3459V30.3391V30.3322V30.3254V30.3185V30.3117V30.3049V30.298V30.2912V30.2844V30.2776V30.2708V30.2641V30.2573V30.2505V30.2438V30.237V30.2303V30.2236V30.2168V30.2101V30.2034V30.1967V30.1901V30.1834V30.1767V30.1701V30.1634V30.1568V30.1502V30.1435V30.1369V30.1303V30.1238V30.1172V30.1106V30.1041V30.0975V30.091V30.0845V30.078V30.0715V30.065V30.0585V30.052V30.0456V30.0391V30.0327V30.0263V30.0199V30.0135V30.0071V30.0007V29.9944V29.988V29.9817V29.9754V29.9691V29.9628V29.9565V29.9502V29.944V29.9377V29.9315V29.9253V29.9191V29.9129V29.9067V29.9005V29.8944V29.8883V29.8821V29.876V29.8699V29.8639V29.8578V29.8518V29.8457V29.8397V29.8337V29.8277V29.8217V29.8158V29.8099V29.8039V29.798V29.7921V29.7862V29.7804V29.7745V29.7687V29.7629V29.7571V29.7513V29.7455V29.7398V29.7341V29.7283V29.7227V29.717V29.7113V29.7057V29.7V29.6944V29.6888V29.6832V29.6777V29.6721V29.6666V29.6611V29.6556V29.6502V29.6447V29.6393V29.6339V29.6285V29.6231V29.6177V29.6124V29.6071V29.6018V29.5965V29.5913V29.586V29.5808V29.5756V29.5704V29.5652V29.5601V29.555V29.5499V29.5448V29.5397V29.5347V29.5297V29.5247V29.5197V29.5147V29.5098V29.5049V29.5V29.2929L33.8536 29.1464L33.3403 28.6332L34.463 27.8914L38.3531 31.1843ZM44.6346 15.524L34 23.5V22.6832L43.8424 11.0512L43.5025 14.4502L43.4726 14.7493L43.7226 14.916L44.6346 15.524ZM2.10093 21.5L2.63982 20.6917L12.0164 26.8867L4.86812 27.4684L3.98076 24.3626L3.95932 24.2876L3.91603 24.2226L2.10093 21.5ZM5.71923 28.4024L11.9881 27.8923L8.50541 30.8403L5.71923 28.4024ZM14 31.9098L9.64691 31.1843L13.537 27.8914L14.6597 28.6332L14.1464 29.1464L14 29.2929V29.5V29.5049V29.5098V29.5147V29.5197V29.5247V29.5297V29.5347V29.5397V29.5448V29.5499V29.555V29.5601V29.5652V29.5704V29.5756V29.5808V29.586V29.5913V29.5965V29.6018V29.6071V29.6124V29.6177V29.6231V29.6285V29.6339V29.6393V29.6447V29.6502V29.6556V29.6611V29.6666V29.6721V29.6777V29.6832V29.6888V29.6944V29.7V29.7057V29.7113V29.717V29.7227V29.7283V29.7341V29.7398V29.7455V29.7513V29.7571V29.7629V29.7687V29.7745V29.7804V29.7862V29.7921V29.798V29.8039V29.8099V29.8158V29.8217V29.8277V29.8337V29.8397V29.8457V29.8518V29.8578V29.8639V29.8699V29.876V29.8821V29.8883V29.8944V29.9005V29.9067V29.9129V29.9191V29.9253V29.9315V29.9377V29.944V29.9502V29.9565V29.9628V29.9691V29.9754V29.9817V29.988V29.9944V30.0007V30.0071V30.0135V30.0199V30.0263V30.0327V30.0391V30.0456V30.052V30.0585V30.065V30.0715V30.078V30.0845V30.091V30.0975V30.1041V30.1106V30.1172V30.1238V30.1303V30.1369V30.1435V30.1502V30.1568V30.1634V30.1701V30.1767V30.1834V30.1901V30.1967V30.2034V30.2101V30.2168V30.2236V30.2303V30.237V30.2438V30.2505V30.2573V30.2641V30.2708V30.2776V30.2844V30.2912V30.298V30.3049V30.3117V30.3185V30.3254V30.3322V30.3391V30.3459V30.3528V30.3597V30.3666V30.3734V30.3803V30.3872V30.3941V30.4011V30.408V30.4149V30.4218V30.4288V30.4357V30.4427V30.4496V30.4566V30.4636V30.4705V30.4775V30.4845V30.4915V30.4985V30.5055V30.5125V30.5195V30.5265V30.5335V30.5405V30.5475V30.5546V30.5616V30.5686V30.5757V30.5827V30.5898V30.5968V30.6039V30.6109V30.618V30.625V30.6321V30.6392V30.6462V30.6533V30.6604V30.6675V30.6745V30.6816V30.6887V30.6958V30.7029V30.71V30.7171V30.7241V30.7312V30.7383V30.7454V30.7525V30.7596V30.7667V30.7738V30.7809V30.788V30.7951V30.8022V30.8093V30.8164V30.8235V30.8306V30.8377V30.8448V30.8519V30.859V30.8661V30.8732V30.8803V30.8874V30.8945V30.9016V30.9087V30.9158V30.9229V30.93V30.9371V30.9442V30.9513V30.9583V30.9654V30.9725V30.9796V30.9867V30.9937V31.0008V31.0079V31.0149V31.022V31.0291V31.0361V31.0432V31.0502V31.0573V31.0643V31.0713V31.0784V31.0854V31.0924V31.0995V31.1065V31.1135V31.1205V31.1275V31.1345V31.1415V31.1485V31.1555V31.1625V31.1695V31.1765V31.1834V31.1904V31.1973V31.2043V31.2113V31.2182V31.2251V31.2321V31.239V31.2459V31.2528V31.2597V31.2666V31.2735V31.2804V31.2873V31.2942V31.301V31.3079V31.3147V31.3216V31.3284V31.3352V31.3421V31.3489V31.3557V31.3625V31.3693V31.3761V31.3828V31.3896V31.3964V31.4031V31.4099V31.4166V31.4233V31.43V31.4367V31.4434V31.4501V31.4568V31.4635V31.4701V31.4768V31.4834V31.49V31.4967V31.5033V31.5099V31.5165V31.5231V31.5296V31.5362V31.5427V31.5493V31.5558V31.5623V31.5688V31.5753V31.5818V31.5883V31.5947V31.6012V31.6076V31.614V31.6205V31.6269V31.6332V31.6396V31.646V31.6523V31.6587V31.665V31.6713V31.6776V31.6839V31.6902V31.6965V31.7027V31.7089V31.7152V31.7214V31.7276V31.7337V31.7399V31.7461V31.7522V31.7583V31.7645V31.7706V31.7766V31.7827V31.7888V31.7948V31.8008V31.8068V31.8128V31.8188V31.8248V31.8307V31.8367V31.8426V31.8485V31.8544V31.8602V31.8661V31.8719V31.8778V31.8836V31.8894V31.8951V31.9009V31.9066V31.9098ZM14 23.5L3.36536 15.524L4.27735 14.916L4.52742 14.7493L4.49752 14.4502L4.15762 11.0512L14 22.6832V23.5Z" fill="#FE6B00"/>
</svg>
