<svg width="45" height="35" viewBox="0 0 45 35" fill="none" xmlns="http://www.w3.org/2000/svg">
<path fill-rule="evenodd" clip-rule="evenodd" d="M36.5 0H36V0.5V6H33.5H33V6.5V9.5V18H31V7.5V7H30.5H20.5H20V2.5V2H19.5H6.5H6V2.5V7H4.5H4V7.5V15H0.5H0V15.5V18C0 20.1765 1.08917 21.962 2.39354 23.2881C3.21312 24.1214 4.13357 24.7904 4.96556 25.2813C4.42639 25.4196 3.8461 25.6081 3.2859 25.8549C2.16048 26.3508 1.0097 27.1295 0.535762 28.3143L1.46424 28.6857C1.7903 27.8705 2.63952 27.2325 3.6891 26.7701C4.70805 26.3211 5.81606 26.0821 6.52696 26.0001C7.37452 26.0091 8.258 26.4376 9.20221 26.9412C9.26739 26.9759 9.33295 27.0111 9.39878 27.0464L9.3993 27.0467L9.39935 27.0467C9.79543 27.259 10.201 27.4764 10.5891 27.6458C11.0403 27.8426 11.522 28 12 28C12.8547 28 13.6834 27.7173 14.3486 27.3847C14.9992 27.0594 15.5366 26.6646 15.835 26.372C15.8434 26.3676 15.8711 26.3525 15.9293 26.3298C16.0214 26.2939 16.1496 26.2537 16.31 26.2124C16.6291 26.1302 17.0391 26.0524 17.4634 25.9942C17.8879 25.9359 18.3133 25.8991 18.6638 25.895C18.8393 25.8929 18.9873 25.8992 19.1025 25.9128C19.1598 25.9195 19.2039 25.9275 19.2361 25.9353C19.2622 25.9417 19.2745 25.9466 19.2768 25.9475L19.2764 25.9472C19.4892 26.0536 19.7437 26.2215 20.0385 26.431C20.1548 26.5137 20.2849 26.6083 20.4195 26.7062L20.4196 26.7063C20.6002 26.8377 20.7889 26.9751 20.9633 27.0971C21.2816 27.32 21.618 27.5399 21.9483 27.705C22.2715 27.8666 22.6354 28 23 28C23.6174 28 24.2755 27.7606 24.8454 27.4562C25.4231 27.1476 25.9634 26.7437 26.3536 26.3536C26.5788 26.1283 27.1211 25.6661 27.7604 25.4413C28.0741 25.331 28.3916 25.2847 28.6985 25.3344C28.9986 25.3829 29.3209 25.528 29.6464 25.8536C31.2222 27.4293 32.8439 28 34 28C34.4841 28 34.874 27.8847 35.1951 27.6786C35.5084 27.4775 35.7221 27.2113 35.8874 26.9703C35.956 26.8701 36.0215 26.7664 36.0808 26.6724L36.1139 26.62C36.1844 26.5086 36.2479 26.4107 36.3143 26.3211C36.4452 26.1443 36.5704 26.0238 36.7236 25.9472L36.7962 25.9109L36.8112 25.8959C36.8418 25.8934 36.8922 25.8931 36.9699 25.8997C37.1166 25.9123 37.2848 25.941 37.4992 25.9775C37.5961 25.994 37.7025 26.0122 37.8207 26.0312C38.5259 26.1445 39.4815 26.2554 40.5539 26.0015C41.0991 26.0297 42.6399 26.4753 44.1096 28.3123L44.8904 27.6877C43.9143 26.4675 42.8738 25.7576 42.0082 25.3771C42.8339 24.8673 43.4548 24.1788 43.9087 23.4695C44.5816 22.4177 44.9044 21.2956 44.9961 20.562L45 20.5311V20.5V18.5V18H44.5H41V9.5V6.5V6H40.5H38V0.5V0H37.5H36.5ZM40 18H34V10H40V18ZM40 9H34V7H36.5H37.5H40V9ZM30 8V18H21V8H30ZM20 8V18H17.7676L15.916 15.2226L15.7676 15H15.5H5V8H6.5H19.5H20ZM19 3V7H7V3H19ZM9.67279 26.0588C8.78032 25.5828 7.71214 25.0348 6.6054 25.0016C5.6579 24.5926 4.267 23.7668 3.10646 22.5869C1.91083 21.3713 1 19.8235 1 18V16H4.5H15.2324L17.084 18.7773L17.2324 19H17.5H20.5H30.5H33.5H40.5H44V20.4679C43.9197 21.0699 43.6421 22.0306 43.0663 22.9305C42.4862 23.8372 41.6208 24.6573 40.3707 25.0169C39.4735 25.2395 38.6573 25.1528 37.9793 25.0438C37.8923 25.0298 37.8037 25.0147 37.7156 24.9997L37.7155 24.9997L37.7155 24.9997L37.715 24.9996C37.4787 24.9594 37.2458 24.9197 37.0551 24.9034C36.9188 24.8917 36.7673 24.8878 36.6207 24.9128C36.4943 24.9343 36.3481 24.9815 36.2175 25.0836C35.9024 25.2555 35.6818 25.4949 35.5107 25.7258C35.4208 25.8472 35.3406 25.9719 35.2689 26.0851L35.2324 26.1429C35.1731 26.2369 35.1195 26.3218 35.0626 26.4047C34.9279 26.6012 34.8041 26.7412 34.6549 26.837C34.5135 26.9278 34.3159 27 34 27C33.1561 27 31.7778 26.5707 30.3536 25.1464C29.8886 24.6815 29.378 24.4313 28.8581 24.3472C28.3449 24.2642 27.8549 24.348 27.4287 24.4979C26.5884 24.7934 25.9212 25.3717 25.6464 25.6464C25.3295 25.9634 24.8698 26.3095 24.3743 26.5741C23.871 26.843 23.3826 27 23 27C22.8646 27 22.666 26.9459 22.3955 26.8106C22.132 26.6788 21.8434 26.4925 21.5367 26.2779C21.3587 26.1533 21.1941 26.0333 21.028 25.9122L21.0278 25.9121L21.0271 25.9116L21.0269 25.9114L21.0266 25.9113C20.8939 25.8145 20.7602 25.7171 20.6177 25.6158C20.3188 25.4035 20.0108 25.1964 19.7236 25.0528C19.5664 24.9742 19.3814 24.9387 19.2195 24.9196C19.0475 24.8994 18.8535 24.8927 18.652 24.895C18.2484 24.8998 17.7797 24.9414 17.3274 25.0035C16.8749 25.0656 16.4257 25.15 16.0605 25.2441C15.8786 25.2909 15.7085 25.3425 15.5656 25.3983C15.4434 25.446 15.2704 25.5225 15.1464 25.6464C14.9408 25.8521 14.487 26.1975 13.9014 26.4903C13.3166 26.7827 12.6453 27 12 27C11.728 27 11.3972 26.9074 10.989 26.7292C10.6411 26.5774 10.2762 26.3819 9.87745 26.1683L9.67279 26.0588ZM6 19V20H5V21H6V22H7V21H8V20H7V19H6ZM11 21H15V20H11V21ZM24.0098 33.3618C23.5718 33.6883 23.0506 34 22.5 34C21.952 34 21.4959 33.7251 21.1209 33.4182C20.841 33.1892 20.556 32.898 20.2814 32.6174L20.2811 32.617L20.2802 32.6161C20.1927 32.5267 20.1063 32.4384 20.0214 32.3536C19.2767 31.6088 18.5302 31 17.5 31C15.7129 31 14.3448 32.2069 13.9 32.8L13.8571 32.8571L13.8 32.9C13.4427 33.168 12.857 33.5414 12.2433 33.7986C11.9363 33.9273 11.6044 34.0345 11.2793 34.0783C10.958 34.1216 10.5995 34.1088 10.2764 33.9472C9.92841 33.7732 9.62147 33.4517 9.35749 33.1489C9.23248 33.0055 9.11862 32.8684 9.0052 32.7318L9.00511 32.7317L9.00507 32.7317L9.00502 32.7316C8.84711 32.5415 8.69006 32.3524 8.50503 32.1488C7.89647 31.4794 7.27426 31 6.5 31C5.64213 31 4.99894 31.3162 4.43735 31.7654C4.15194 31.9938 3.88935 32.2553 3.62913 32.5308C3.54471 32.6202 3.45805 32.7139 3.37045 32.8085L3.37037 32.8086L3.36949 32.8096L3.36896 32.8101L3.36821 32.8109L3.36814 32.811L3.36811 32.8111C3.19687 32.9961 3.02211 33.185 2.85355 33.3536C2.33832 33.8688 1.75958 34.0023 1.24466 33.9185C0.76075 33.8397 0.36969 33.5768 0.146447 33.3536L0.853553 32.6464C0.963643 32.7565 1.17258 32.8936 1.40534 32.9315C1.60708 32.9643 1.86168 32.9312 2.14645 32.6464C2.30254 32.4904 2.45281 32.3278 2.61423 32.1532C2.7056 32.0544 2.80053 31.9517 2.90212 31.8442C3.17315 31.5572 3.47306 31.2562 3.81265 30.9846C4.50106 30.4338 5.35787 30 6.5 30C7.72574 30 8.60353 30.7706 9.24497 31.4762C9.43321 31.6832 9.62902 31.9181 9.80587 32.1302L9.80591 32.1302C9.91747 32.264 10.0215 32.3888 10.1113 32.4917C10.3785 32.7983 10.5716 32.9768 10.7236 33.0528C10.8005 33.0912 10.9336 33.1159 11.1457 33.0873C11.3539 33.0592 11.5971 32.9852 11.8567 32.8764C12.3474 32.6707 12.8334 32.368 13.1465 32.1396C13.7422 31.3833 15.3458 30 17.5 30C18.9698 30 19.9733 30.8912 20.7286 31.6464C20.8339 31.7518 20.9331 31.8531 21.0278 31.9498L21.0288 31.9508L21.0297 31.9518L21.0299 31.952C21.2924 32.2201 21.5208 32.4534 21.7541 32.6443C22.0666 32.8999 22.298 33 22.5 33C22.6994 33 22.9907 32.8742 23.4121 32.5601C23.7092 32.3386 24.0134 32.0699 24.3446 31.7773L24.3446 31.7773L24.3447 31.7772L24.3447 31.7772C24.4706 31.666 24.6003 31.5514 24.735 31.4347C25.2061 31.0264 25.728 30.6019 26.2758 30.3149C26.8275 30.0259 27.4578 29.8491 28.1213 30.0149C28.718 30.1641 29.2513 30.4923 29.7239 30.8654C30.1923 31.2352 30.6314 31.6743 31.0309 32.0738L31.0411 32.0839C31.4542 32.4971 31.819 32.8605 32.1685 33.1244C32.5228 33.3919 32.7892 33.5 33 33.5C33.1865 33.5 33.4433 33.3856 33.8074 33.0735C34.1111 32.8132 34.4217 32.4771 34.7676 32.1027L34.7677 32.1025L34.7678 32.1025L34.7678 32.1024L34.7678 32.1024L34.7695 32.1006L34.7733 32.0965C34.8299 32.0352 34.8875 31.9729 34.9461 31.9098C35.3513 31.4734 35.8018 31.0036 36.2893 30.6443C36.7777 30.2845 37.3501 30 38 30C39.1866 30 40.3068 30.7302 41.1839 31.4193C41.5195 31.683 41.8406 31.9585 42.1274 32.2046L42.1295 32.2064C42.2241 32.2877 42.315 32.3656 42.4015 32.4389C42.7703 32.7517 43.037 32.9595 43.2236 33.0528C43.4779 33.1799 43.6415 33.1419 43.7552 33.0822C43.8967 33.008 44.0052 32.8715 44.0528 32.7764L44.9472 33.2236C44.8281 33.4618 44.5866 33.7753 44.2198 33.9678C43.8251 34.1748 43.3221 34.2201 42.7764 33.9472C42.463 33.7905 42.1047 33.4983 41.7548 33.2017C41.659 33.1205 41.5619 33.0371 41.463 32.9523L41.4629 32.9522L41.4625 32.9519C41.1796 32.7092 40.8829 32.4546 40.5661 32.2057C39.6932 31.5198 38.8134 31 38 31C37.6499 31 37.2848 31.153 36.8825 31.4494C36.4794 31.7464 36.0862 32.1516 35.6789 32.5902C35.6228 32.6506 35.5662 32.7119 35.5093 32.7736C35.1669 33.1446 34.8103 33.531 34.4582 33.8328C34.0567 34.1769 33.5635 34.5 33 34.5C32.4608 34.5 31.9772 34.2331 31.5659 33.9225C31.1552 33.6124 30.7442 33.2013 30.3497 32.8068L30.3339 32.7911C29.9236 32.3807 29.5225 31.9805 29.1042 31.6503C28.6862 31.3202 28.282 31.0859 27.8787 30.9851C27.5422 30.9009 27.1725 30.9741 26.7398 31.2007C26.3033 31.4294 25.8564 31.7861 25.39 32.1903C25.2747 32.2902 25.1572 32.3941 25.0385 32.4989L25.0368 32.5004L25.0365 32.5007C24.6944 32.803 24.3429 33.1135 24.0098 33.3618ZM38 21H36V23H38V21ZM35 21V23H33V21H35ZM32 21H30V23H32V21Z" fill="#FE6B00"/>
</svg>
