<svg width="39" height="38" viewBox="0 0 39 38" fill="none" xmlns="http://www.w3.org/2000/svg">
<path fill-rule="evenodd" clip-rule="evenodd" d="M21.7678 16.6378C25.2825 20.1525 30.981 20.1525 34.4957 16.6378C38.0104 13.1231 38.0104 7.42462 34.4957 3.9099C30.981 0.395184 25.2825 0.395184 21.7678 3.9099C18.253 7.42462 18.253 13.1231 21.7678 16.6378ZM21.0607 17.3449C24.9659 21.2502 31.2976 21.2502 35.2028 17.3449C39.108 13.4397 39.108 7.10804 35.2028 3.2028C31.2976 -0.702448 24.9659 -0.702447 21.0607 3.2028C17.1554 7.10804 17.1554 13.4397 21.0607 17.3449ZM6.5274 2.88681L5.15076 4.26346L13.2825 12.3952L14.6967 10.981C15.2592 10.4185 15.3256 9.81287 15.1839 9.24608C15.0348 8.64975 14.6516 8.10747 14.3431 7.79899L10.1005 3.55635C8.64449 2.10034 7.11731 2.51891 6.5274 2.88681ZM12.5754 13.1023L4.45059 4.9775C2.9178 6.63703 2.15234 8.39062 1.93707 10.1768C1.70504 12.102 2.10786 14.1037 2.94303 16.1098C4.61838 20.1341 7.98876 24.072 11.1612 27.2444C14.3336 30.4168 18.2715 33.7872 22.2958 35.4626C24.3019 36.2977 26.3036 36.7005 28.2288 36.4685C30.015 36.2533 31.7686 35.4878 33.4281 33.955L25.3033 25.8302L24.2426 26.8909L24.2076 26.9259L24.1664 26.9533C23.3115 27.5233 21.198 28.0889 19.2929 26.1838L16.4645 23.3553L15.0503 21.9411L12.2218 19.1127C10.3167 17.2076 10.8823 15.094 11.4522 14.2392L11.4797 14.198L11.5147 14.163L12.5754 13.1023ZM2.01983 16.4941C3.77395 20.7076 7.2625 24.76 10.4541 27.9515C13.6456 31.1431 17.698 34.6316 21.9115 36.3858C24.0243 37.2653 26.2033 37.7199 28.3484 37.4613C30.5027 37.2017 32.5839 36.2273 34.4957 34.3155L36.2635 32.5477L36.2985 32.5127L36.3259 32.4715C36.8959 31.6166 37.4615 29.5031 35.5563 27.598L31.3137 23.3553C30.9151 22.9567 30.2199 22.456 29.402 22.2515C28.5546 22.0397 27.5693 22.15 26.7175 23.0018L24.9497 24.7696L23.5731 26.1462C22.9832 26.5141 21.456 26.9327 20 25.4767L17.1716 22.6482L15.7574 21.234L12.9289 18.4056C11.4729 16.9496 11.8915 15.4224 12.2594 14.8325L13.636 13.4558L15.4038 11.6881C16.2556 10.8363 16.3659 9.85097 16.154 9.00355C15.9496 8.18567 15.4489 7.49051 15.0503 7.09188L10.8076 2.84924C8.90249 0.944121 6.78896 1.50974 5.93407 2.07966L5.89287 2.10713L5.85786 2.14214L4.0901 3.9099C2.17832 5.82168 1.20388 7.90292 0.944249 10.0571C0.685715 12.2023 1.14026 14.3813 2.01983 16.4941ZM35.5188 31.8782L34.1421 33.2548L26.0104 25.1231L27.4246 23.7089C27.9871 23.1464 28.5927 23.08 29.1595 23.2217C29.7558 23.3708 30.2981 23.754 30.6066 24.0624L34.8492 28.3051C36.3053 29.7611 35.8867 31.2883 35.5188 31.8782ZM9.3934 22.6482L15.4038 28.6586L16.1109 27.9515L10.1005 21.9411L9.3934 22.6482ZM31.3137 6.38478L30.9602 6.03122L30.6066 6.38478L27.0711 9.92031L25.3033 8.15254L24.9497 7.79899L24.5962 8.15254L22.4749 10.2739L22.1213 10.6274L22.4749 10.981L26.7175 15.2236L27.0711 15.5772L27.4246 15.2236L33.435 9.2132L33.7886 8.85965L33.435 8.5061L31.3137 6.38478ZM27.4246 10.981L30.9602 7.44544L32.3744 8.85965L27.0711 14.163L23.5355 10.6274L24.9497 9.2132L26.7175 10.981L27.0711 11.3345L27.4246 10.981Z" fill="#FE6B00"/>
</svg>
