<svg width="46" height="47" viewBox="0 0 46 47" fill="none" xmlns="http://www.w3.org/2000/svg">
<path fill-rule="evenodd" clip-rule="evenodd" d="M0 0H0.5H6.5H7V0.5V3H8.34861L11.2226 1.08397L11.3486 1H11.5H12.2929L13.1464 0.146447L13.2929 0H13.5H21.5H21.5811L21.6581 0.0256583L24.6581 1.02566L24.7701 1.06298L24.8536 1.14645L31.8536 8.14645L32 8.29289V8.5V11.5V11.809L31.7236 11.9472L29.7639 12.9271L28 14.25V20.5V21H27.5H26V28.5V28.7071L25.8536 28.8536L24.8536 29.8536L24.7071 30H24.5H24V31H23V30H22.5H22.2929L22.1464 29.8536L21.1464 28.8536L21 28.7071V28.5V21H19.5H19V20.5V14.1328L17.4231 11.3733L15.3841 13.8201L15.2342 14H15H10.5H10.2929L10.1464 13.8536L8.29289 12H7V13.5V14H6.5H0.5H0V13.5V0.5V0ZM7 11H8.5H8.70711L8.85355 11.1464L10.7071 13H14.7658L17.1159 10.1799L17.2658 10H17.5H23.3486L24.5 9.23241V7.76759L23.3486 7H15V6H23.4384L25.3787 5.51493L25.625 5.45335L25.8201 5.61589L28.8201 8.11589L29 8.26581V8.5V11.5657L29.5359 11.923L31 11.191V8.70711L24.2299 1.93702L21.4189 1H13.7071L12.8536 1.85355L12.7071 2H12.5H11.6514L8.77735 3.91603L8.65139 4H8.5H7V11ZM28.6346 12.524L28.2227 12.2494L25 10.1009L23.7773 10.916L23.6514 11H23.5H18.3616L19.7902 13.5H27.3333L28.6346 12.524ZM20 14.5V20H21.5H25.5H27V14.5H20ZM25.5 9.23241L28 10.8991V8.73419L25.375 6.54665L24.7178 6.71094L25.2773 7.08397L25.5 7.23241V7.5V9.23241ZM22 21V28.2929L22.7071 29H23.5H24.2929L25 28.2929V21H22ZM1 1V13H6V11.5V3.5V1H1ZM35.1184 30.978L35.2774 31.084L38.2429 33.061L39.7765 33.7511L40.5575 32.2671L40.7258 31.9474L41.0822 32.0068L44.0822 32.5068L44.2959 32.5424L44.416 32.7226L45.416 34.2226L45.5619 34.4415L45.4642 34.6857C44.7965 36.355 43.7694 38.8601 42.8583 40.9498C42.4033 41.9935 41.9743 42.9402 41.6321 43.6288C41.462 43.9712 41.3078 44.261 41.179 44.4697C41.1159 44.5719 41.0491 44.6708 40.9814 44.7498C40.9482 44.7884 40.9019 44.8377 40.8437 44.8812C40.8209 44.8983 40.7797 44.9273 40.7228 44.9524L39.2774 45.916L39.0585 46.0619L38.8143 45.9642L36.3143 44.9642L36.0628 44.8636L36.0097 44.5981L35.625 42.6746L32.1756 43.9682L32.0419 44.0183L31.9019 43.9903L29.4019 43.4903L29.3648 43.4829L29.3291 43.4699L18.3724 39.4856L15.4178 38.9932L15.2597 38.9669L15.1464 38.8536L13.1464 36.8536L13 36.7071V36.5V35V34.8486L13.084 34.7226L14.084 33.2226L14.2324 33H14.5H17.5H17.6061L17.7031 33.0431L21.839 34.8813L23.1 33.2L23.25 33H23.5H25.4384L31.3787 31.5149L31.4038 31.5087L31.4293 31.505L34.9293 31.005L35.1184 30.978ZM21.6781 35.9041L17.3939 34H14.7676L14 35.1514V36.2929L15.7403 38.0331L18.5822 38.5068L18.6276 38.5144L18.6709 38.5301L29.6352 42.5171L31.9581 42.9817L35.6462 41.5987L39.3099 34.6377L37.7948 33.956L37.7571 33.939L37.7226 33.916L34.8816 32.022L31.5962 32.4913L25.6213 33.9851L25.5616 34H25.5H23.75L22.625 35.5L23.7854 37.0472L25.9878 37.4877L27.8787 37.0149L27.8945 37.011L27.9106 37.0081L33.4106 36.0081L33.5894 36.9919L28.1055 37.989L26.1213 38.4851L26.0122 38.5123L25.9019 38.4903L23.4019 37.9903L23.2146 37.9528L23.1 37.8L21.6781 35.9041ZM36.5251 42.0759L36.9372 44.1364L38.9415 44.9381L40.2226 44.084L40.246 44.0684C40.2654 44.0419 40.2927 44.0017 40.328 43.9444C40.4323 43.7755 40.5703 43.5184 40.7366 43.1837C41.0674 42.5181 41.4884 41.5898 41.9417 40.5502C42.804 38.5724 43.7727 36.2157 44.438 34.5583L43.7041 33.4576L41.2742 33.0526L40.4425 34.6329L36.5251 42.0759ZM23 17V16H24V17H23ZM22 15H23H24H25V16V17V18H24H23H22V17V16V15Z" fill="#FE6B00"/>
</svg>
