<svg width="42" height="40" viewBox="0 0 42 40" fill="none" xmlns="http://www.w3.org/2000/svg">
<path fill-rule="evenodd" clip-rule="evenodd" d="M41 9.5C41 14.1944 37.1944 18 32.5 18C27.8056 18 24 14.1944 24 9.5C24 4.80558 27.8056 1 32.5 1C37.1944 1 41 4.80558 41 9.5ZM33 18.9871C38.0143 18.7271 42 14.579 42 9.5C42 4.25329 37.7467 0 32.5 0C28.4893 0 25.0591 2.48538 23.6655 6H6.5H6V6.5V31H0.5H0V31.5V35.5C0 36.2467 0.21989 37.3556 0.894233 38.2922C1.58693 39.2542 2.73704 40 4.5 40H27.5C28.394 40 29.7366 39.7887 30.8746 39.1333C32.0374 38.4635 33 37.3147 33 35.5V18.9871ZM23.3324 7H7V31H22.5H23V31.5V35.5C23 36.0603 23.2151 36.936 23.8716 37.6655C24.5138 38.379 25.621 39 27.5 39C28.2727 39 29.4301 38.8113 30.3754 38.2667C31.296 37.7365 32 36.8853 32 35.5V18.9871C28.5931 18.8104 25.661 16.8389 24.1313 14H17V13H23.6655C23.236 11.9169 23 10.736 23 9.5C23 8.63478 23.1157 7.79657 23.3324 7ZM32 5V6.42857H30.8333H30.3333V6.92857V9.5V10H30.8333H33.6667V11.5714H32.5H30V12.5714H32V14H33V12.5714H34.1667H34.6667V12.0714V9.5V9H34.1667H31.3333V7.42857H32H32.5H35V6.42857H33V5H32ZM17 20.5H28V19.5H17V20.5ZM17 26.5H28V25.5H17V26.5ZM23.1284 38.3345C23.3439 38.574 23.5933 38.7984 23.8795 39H4.5C3.06296 39 2.21307 38.4124 1.70577 37.7078C1.18011 36.9778 1 36.0867 1 35.5V32H6.5H22V35.5C22 36.273 22.2849 37.3973 23.1284 38.3345ZM14 26.0005C14 26.8289 13.3284 27.5005 12.5 27.5005C11.6716 27.5005 11 26.8289 11 26.0005C11 25.1721 11.6716 24.5005 12.5 24.5005C13.3284 24.5005 14 25.1721 14 26.0005ZM15 26.0005C15 27.3812 13.8807 28.5005 12.5 28.5005C11.1193 28.5005 10 27.3812 10 26.0005C10 24.6198 11.1193 23.5005 12.5 23.5005C13.8807 23.5005 15 24.6198 15 26.0005ZM12.5 21.4995C13.3284 21.4995 14 20.8279 14 19.9995C14 19.1711 13.3284 18.4995 12.5 18.4995C11.6716 18.4995 11 19.1711 11 19.9995C11 20.8279 11.6716 21.4995 12.5 21.4995ZM12.5 22.4995C13.8807 22.4995 15 21.3802 15 19.9995C15 18.6188 13.8807 17.4995 12.5 17.4995C11.1193 17.4995 10 18.6188 10 19.9995C10 21.3802 11.1193 22.4995 12.5 22.4995ZM14 13.5C14 14.3284 13.3284 15 12.5 15C11.6716 15 11 14.3284 11 13.5C11 12.6716 11.6716 12 12.5 12C13.3284 12 14 12.6716 14 13.5ZM15 13.5C15 14.8807 13.8807 16 12.5 16C11.1193 16 10 14.8807 10 13.5C10 12.1193 11.1193 11 12.5 11C13.8807 11 15 12.1193 15 13.5Z" fill="#FE6B00"/>
</svg>
