<svg width="32" height="48" viewBox="0 0 32 48" fill="none" xmlns="http://www.w3.org/2000/svg">
<path fill-rule="evenodd" clip-rule="evenodd" d="M30 1H2C1.44772 1 1 1.44772 1 2V46C1 46.5523 1.44772 47 2 47H30C30.5523 47 31 46.5523 31 46V2C31 1.44772 30.5523 1 30 1ZM2 0C0.895431 0 0 0.895431 0 2V46C0 47.1046 0.895431 48 2 48H30C31.1046 48 32 47.1046 32 46V2C32 0.895431 31.1046 0 30 0H2ZM21.015 34.1161L21.4682 35.3244C21.7156 35.9842 22.1106 36.9714 22.4909 37.7892C22.682 38.2002 22.8629 38.5542 23.0145 38.7999C23.0297 38.8245 23.0442 38.8473 23.0579 38.8684C23.1481 38.7671 23.2513 38.631 23.3615 38.4688C23.6285 38.0763 23.8924 37.5971 24.0528 37.2764L24.3947 36.5926L24.8841 37.1799L27.3841 40.1799L26.6159 40.8201L24.589 38.3878C24.4652 38.6024 24.3283 38.8255 24.1885 39.0312C24.0398 39.2498 23.8765 39.4655 23.7125 39.6321C23.6307 39.7151 23.5364 39.7987 23.4323 39.8644C23.3337 39.9265 23.1834 40 23 40C22.839 40 22.7147 39.9351 22.6421 39.8873C22.5654 39.8368 22.5016 39.7757 22.4514 39.721C22.3507 39.6113 22.2537 39.4711 22.1636 39.3251C21.9809 39.0291 21.7805 38.6331 21.5841 38.2108C21.3836 37.7796 21.1805 37.3061 20.996 36.8563L19.4642 40.6857L18.5358 40.3143L20.5358 35.3143L21.015 34.1161ZM22.8933 39.0217C22.8933 39.0217 22.8944 39.021 22.8967 39.0199C22.8944 39.0212 22.8932 39.0218 22.8933 39.0217ZM9 43C11.7614 43 14 40.7614 14 38C14 35.2386 11.7614 33 9 33C6.23858 33 4 35.2386 4 38C4 40.7614 6.23858 43 9 43ZM9 44C12.3137 44 15 41.3137 15 38C15 34.6863 12.3137 32 9 32C5.68629 32 3 34.6863 3 38C3 41.3137 5.68629 44 9 44ZM12.3536 36.8536L8.85355 40.3536L8.53711 40.67L8.18765 40.3904L5.68765 38.3904L6.31235 37.6096L8.46289 39.33L11.6464 36.1464L12.3536 36.8536ZM19 27H15V26H19V27ZM5 27H13V26H5V27ZM27 24H22V23H27V24ZM5 24H19V23H5V24ZM27 20H11V19H27V20ZM8 13H24V12H8V13ZM26 10H6V9H26V10ZM6 7H26V6H6V7Z" fill="#FE6B00"/>
</svg>
