<svg width="51" height="23" viewBox="0 0 51 23" fill="none" xmlns="http://www.w3.org/2000/svg">
<path fill-rule="evenodd" clip-rule="evenodd" d="M28 0H27.7397L27.5904 0.213269L24.2397 5H19.5H19.3333L19.2 5.1L17.2 6.6L17 6.75V7V11.5V12H17.5H22.05C22.2816 13.1411 23.2905 14 24.5 14H23.5H15V2.5V2H14.5H8.5H5H4.72702L4.57941 2.22962L0.0794108 9.22962L0 9.35315V9.5V14.5V18.5V19H0.5H3C3 21.2091 4.79086 23 7 23C9.20914 23 11 21.2091 11 19H14V19.5V20H14.5H23.5H24V19.5V19H34C34 21.2091 35.7909 23 38 23C40.2091 23 42 21.2091 42 19H50.5H51V18.5V16V15.8486L50.916 15.7226L49.916 14.2226L49.7676 14H49.5H40.5C41.7095 14 42.7184 13.1411 42.95 12H46.5H47V11.5V5.5V5H46.5H42.7227L38.3716 0.165518L38.2227 0H38H33.5H28ZM41.874 18H50V16.1514L49.2324 15H38H24V18H34.126C34.5701 16.2748 36.1362 15 38 15C39.8638 15 41.4299 16.2748 41.874 18ZM10.874 18H14V15H7H1V18H3.12602C3.57006 16.2748 5.13616 15 7 15C8.86384 15 10.4299 16.2748 10.874 18ZM40.5 14H24.5C25.7095 14 26.7184 13.1411 26.95 12H33.5H38.05C38.2816 13.1411 39.2905 14 40.5 14ZM24.5 9C23.2905 9 22.2816 9.85888 22.05 11H18V7.25L19.6667 6H24.5H33V11H26.95C26.7184 9.85888 25.7095 9 24.5 9ZM42.95 11H46V6H42.5H34V11H38.05C38.2816 9.85888 39.2905 9 40.5 9C41.7095 9 42.7184 9.85888 42.95 11ZM33 5H25.4603L28.2603 1H33V5ZM41.3773 5H34V1H37.7773L41.3773 5ZM41 19C41 20.6569 39.6569 22 38 22C36.3431 22 35 20.6569 35 19C35 17.3431 36.3431 16 38 16C39.6569 16 41 17.3431 41 19ZM38 20C38.5523 20 39 19.5523 39 19C39 18.4477 38.5523 18 38 18C37.4477 18 37 18.4477 37 19C37 19.5523 37.4477 20 38 20ZM38 21C39.1046 21 40 20.1046 40 19C40 17.8954 39.1046 17 38 17C36.8954 17 36 17.8954 36 19C36 20.1046 36.8954 21 38 21ZM10 19C10 20.6569 8.65685 22 7 22C5.34315 22 4 20.6569 4 19C4 17.3431 5.34315 16 7 16C8.65685 16 10 17.3431 10 19ZM7 20C7.55228 20 8 19.5523 8 19C8 18.4477 7.55228 18 7 18C6.44772 18 6 18.4477 6 19C6 19.5523 6.44772 20 7 20ZM7 21C8.10457 21 9 20.1046 9 19C9 17.8954 8.10457 17 7 17C5.89543 17 5 17.8954 5 19C5 20.1046 5.89543 21 7 21ZM42 11.5C42 12.3284 41.3284 13 40.5 13C39.6716 13 39 12.3284 39 11.5C39 10.6716 39.6716 10 40.5 10C41.3284 10 42 10.6716 42 11.5ZM24.5 13C25.3284 13 26 12.3284 26 11.5C26 10.6716 25.3284 10 24.5 10C23.6716 10 23 10.6716 23 11.5C23 12.3284 23.6716 13 24.5 13ZM14 14H1V10H8.5H9V9.5V3H14V14ZM8 9H1.41583L5.27298 3H8V9ZM15 18.5V15H23V18.5V19H15V18.5Z" fill="#FE6B00"/>
</svg>
