<svg width="71" height="36" viewBox="0 0 71 36" fill="none" xmlns="http://www.w3.org/2000/svg">
<g clip-path="url(#clip0)">
<path fill-rule="evenodd" clip-rule="evenodd" d="M53 24.757C52.678 24.757 52.3619 24.7336 52.0525 24.6903L52.7348 31.7436L53 31.7468L53.2652 31.7436L53.9475 24.6903C53.6376 24.7336 53.3215 24.757 53 24.757ZM39.4586 15.6246L46.9968 14.8955C48.1213 12.7259 50.3873 11.243 53 11.243C55.6123 11.243 57.8783 12.7259 59.0027 14.8955L66.5414 15.6246C65.4161 9.16392 59.7822 4.25323 53 4.25323C46.2174 4.25323 40.5839 9.16392 39.4586 15.6246ZM46.3092 17.0525L39.2564 17.7348L39.2532 18L39.2564 18.2652L46.3088 18.9475C46.2651 18.6376 46.2426 18.3215 46.2426 18C46.2426 17.6785 46.2655 17.3624 46.3092 17.0525ZM46.9968 21.1045L39.4586 20.3754C40.4493 26.0642 44.9358 30.5503 50.6246 31.5414L49.8955 24.0032C48.6554 23.3606 47.6399 22.3451 46.9968 21.1045ZM66.5414 20.3754L59.0027 21.1045C58.3601 22.3446 57.3446 23.3606 56.1045 24.0032L55.3754 31.5414C61.0638 30.5503 65.5507 26.0642 66.5414 20.3754ZM59.6908 18.9475L66.7436 18.2652L66.7468 18L66.7436 17.7348L59.6903 17.0525C59.734 17.3624 59.757 17.678 59.757 18C59.757 18.3215 59.7345 18.6376 59.6908 18.9475ZM53 36C43.0588 36 35 27.9407 35 18C35 8.0593 43.0588 2.64912e-06 53 1.70659e-06C62.9407 7.64106e-07 71 8.05929 71 18C71 27.9407 62.9407 36 53 36ZM42.2956 28.7044C42.9427 29.3515 41.9587 30.3355 41.3116 29.6884C38.2008 26.5781 36.4698 22.3982 36.4698 18C36.4698 13.7697 38.0838 9.53948 41.3112 6.31162C41.9578 5.66497 42.9418 6.64891 42.2956 7.29556C39.4469 10.1443 37.8613 13.9719 37.8613 18C37.8613 22.0281 39.4469 25.8558 42.2956 28.7044ZM63.7044 7.29556C63.0573 6.64846 64.0413 5.66452 64.6884 6.31162C67.7987 9.42194 69.5302 13.6018 69.5302 18C69.5302 22.2303 67.9162 26.4605 64.6888 29.6884C64.0413 30.3359 63.0573 29.3515 63.7044 28.7044C66.5531 25.8557 68.1382 22.0281 68.1382 18C68.1382 13.9719 66.5531 10.1443 63.7044 7.29556ZM53 22.0434C55.2331 22.0434 57.0434 20.2331 57.0434 18C57.0434 15.7669 55.2331 13.9566 53 13.9566C50.7669 13.9566 48.9566 15.7669 48.9566 18C48.9566 20.2331 50.7669 22.0434 53 22.0434Z" fill="#333333"/>
<path d="M7.75879 3.72168H5.37305L3.9375 12H1.96875L3.4043 3.72168H1.05273L1.34668 2.04688H8.05273L7.75879 3.72168ZM5.04492 20.9629H2.39941L1.53125 23H-0.601562L4.14258 13.0469H5.94043L7.24609 23H5.21582L5.04492 20.9629ZM3.11719 19.2881H4.9082L4.62793 15.7607L3.11719 19.2881ZM6.9043 32.8721C6.53516 33.2822 6.05436 33.599 5.46191 33.8223C4.86947 34.041 4.23372 34.1458 3.55469 34.1367C2.95768 34.1322 2.44043 34.0023 2.00293 33.7471C1.56543 33.4873 1.22591 33.1136 0.984375 32.626C0.747396 32.1338 0.619792 31.5687 0.601562 30.9307C0.587891 30.5843 0.603841 30.2311 0.649414 29.8711L0.895508 28.2236C1.10514 26.8382 1.55632 25.7673 2.24902 25.0107C2.94173 24.2542 3.84408 23.8874 4.95605 23.9102C5.90397 23.9284 6.61719 24.2155 7.0957 24.7715C7.57878 25.3229 7.82487 26.141 7.83398 27.2256L5.92676 27.2188L5.90625 26.6719C5.84701 25.9609 5.49837 25.5941 4.86035 25.5713C3.91699 25.5348 3.2972 26.1569 3.00098 27.4375L2.89844 27.9502L2.625 29.8711C2.56576 30.3086 2.54297 30.6823 2.55664 30.9922C2.57943 31.5026 2.69336 31.874 2.89844 32.1064C3.10807 32.3343 3.40202 32.4528 3.78027 32.4619C4.13574 32.471 4.53223 32.3548 4.96973 32.1133L5.31836 30.2812H3.94434L4.21094 28.7637H7.5332L6.9043 32.8721Z" fill="#FE6B00"/>
<path d="M11.9834 6.46289L11.3818 6.39453C10.876 6.38542 10.4681 6.62467 10.1582 7.1123L9.30371 12H7.41016L8.69531 4.60352L10.4658 4.59668L10.3154 5.41016C10.5387 5.05469 10.7575 4.80632 10.9717 4.66504C11.1859 4.51921 11.416 4.44629 11.6621 4.44629C11.8079 4.44629 12.0016 4.48047 12.2432 4.54883L11.9834 6.46289ZM15.3125 12C15.276 11.8451 15.2578 11.6536 15.2578 11.4258C14.8385 11.9043 14.36 12.1436 13.8223 12.1436C13.2526 12.1344 12.7946 11.9248 12.4482 11.5146C12.1064 11.1045 11.9492 10.5941 11.9766 9.9834C12.0176 9.19954 12.3229 8.58659 12.8926 8.14453C13.4622 7.69792 14.2279 7.47461 15.1895 7.47461H15.7432L15.832 6.87305L15.8525 6.56543C15.8525 6.16895 15.693 5.9707 15.374 5.9707C14.932 5.95703 14.6631 6.23958 14.5674 6.81836L12.6875 6.83203C12.7285 6.13021 13.0202 5.55827 13.5625 5.11621C14.1048 4.6696 14.7656 4.45085 15.5449 4.45996C16.2786 4.47819 16.8392 4.71061 17.2266 5.15723C17.6185 5.59928 17.778 6.1849 17.7051 6.91406L17.1035 10.6738L17.0762 11.0361C17.0579 11.3551 17.0898 11.6354 17.1719 11.877L17.165 12H15.3125ZM14.3418 10.6328C14.6745 10.6419 14.9844 10.4961 15.2715 10.1953L15.6064 8.62988H15.1963C14.8317 8.64811 14.5378 8.77116 14.3145 8.99902C14.0911 9.22689 13.9567 9.514 13.9111 9.86035L13.9043 10.1201C13.9043 10.266 13.9408 10.3867 14.0137 10.4824C14.0911 10.5781 14.2005 10.6283 14.3418 10.6328ZM21.2598 4.59668L21.123 5.3418C21.6426 4.73568 22.2191 4.44173 22.8525 4.45996C23.3721 4.46908 23.7663 4.66504 24.0352 5.04785C24.3086 5.42611 24.443 5.96615 24.4385 6.66797L24.3975 7.29688L23.6113 12H21.7178L22.4971 7.2832L22.5312 6.87988C22.5495 6.34668 22.349 6.08008 21.9297 6.08008C21.7337 6.08008 21.5674 6.13477 21.4307 6.24414C21.2939 6.34896 21.1663 6.47428 21.0479 6.62012L20.1113 12H18.2109L19.4961 4.60352L21.2598 4.59668ZM28.5742 9.96973C28.6198 9.65072 28.3714 9.36589 27.8291 9.11523C27.2868 8.86458 26.8789 8.62988 26.6055 8.41113C26.3366 8.18783 26.1383 7.94173 26.0107 7.67285C25.8877 7.40397 25.833 7.09863 25.8467 6.75684C25.8786 6.08691 26.152 5.53548 26.667 5.10254C27.1865 4.66504 27.82 4.45085 28.5674 4.45996C29.3057 4.47819 29.8867 4.69922 30.3105 5.12305C30.7389 5.54232 30.9486 6.09831 30.9395 6.79102H29.0527C29.0664 6.46745 29.0231 6.23958 28.9229 6.10742C28.8271 5.9707 28.6745 5.90234 28.4648 5.90234C28.2461 5.90234 28.0592 5.97754 27.9043 6.12793C27.7539 6.27376 27.6605 6.4515 27.624 6.66113C27.5693 6.95736 27.7995 7.22168 28.3145 7.4541C28.834 7.68652 29.2077 7.88021 29.4355 8.03516C30.1146 8.48633 30.4313 9.10384 30.3857 9.8877C30.3584 10.348 30.2148 10.7513 29.9551 11.0977C29.6999 11.4395 29.3558 11.7015 28.9229 11.8838C28.4945 12.0661 28.0296 12.1504 27.5283 12.1367C26.8083 12.1185 26.2204 11.8838 25.7646 11.4326C25.3089 10.9814 25.0856 10.4049 25.0947 9.70312L26.8926 9.70996C26.8789 10.0654 26.9359 10.3206 27.0635 10.4756C27.1911 10.6305 27.3893 10.708 27.6582 10.708C27.8952 10.708 28.0957 10.6465 28.2598 10.5234C28.4284 10.3958 28.5332 10.2113 28.5742 9.96973ZM11.8672 22.3232C11.4023 22.8792 10.86 23.1527 10.2402 23.1436C9.75716 23.139 9.36979 22.9772 9.07812 22.6582C8.78646 22.3346 8.61784 21.8949 8.57227 21.3389C8.54492 21.0153 8.5472 20.6986 8.5791 20.3887L9.37891 15.6035H11.2656L10.4658 20.416L10.4453 20.751C10.4271 20.9788 10.459 21.1634 10.541 21.3047C10.6276 21.446 10.7552 21.5189 10.9238 21.5234C11.2975 21.5371 11.6393 21.348 11.9492 20.9561L12.8789 15.6035H14.7861L13.501 23H11.7441L11.8672 22.3232ZM18.6895 13.7852L18.375 15.6035H19.332L19.0791 17.0596H18.1221L17.4932 20.7852L17.4727 21.0039C17.4544 21.3092 17.582 21.4665 17.8555 21.4756C17.9329 21.4801 18.0879 21.4688 18.3203 21.4414L18.1494 22.959C17.8669 23.0729 17.5387 23.1299 17.165 23.1299C16.6136 23.1208 16.1989 22.9225 15.9209 22.5352C15.6429 22.1478 15.5358 21.6191 15.5996 20.9492L16.2354 17.0596H15.4014L15.6543 15.6035H16.4814L16.8027 13.7852H18.6895ZM22.8252 15.4668C23.5726 15.485 24.1559 15.738 24.5752 16.2256C24.9945 16.7132 25.2246 17.3672 25.2656 18.1875V18.6729C25.2064 20.1038 24.8623 21.2135 24.2334 22.002C23.609 22.7858 22.7933 23.1641 21.7861 23.1367C21.1982 23.123 20.7129 22.9658 20.3301 22.665C19.9473 22.3597 19.6715 21.9382 19.5029 21.4004C19.3389 20.8626 19.2933 20.2451 19.3662 19.5479L19.4072 19.1787C19.5394 18.0166 19.9108 17.1029 20.5215 16.4375C21.1322 15.7676 21.9001 15.444 22.8252 15.4668ZM21.2256 20.3203C21.2256 21.1087 21.4671 21.5166 21.9502 21.5439C22.6064 21.5804 23.0326 21.0791 23.2285 20.04L23.3037 19.5479C23.3675 18.8916 23.3994 18.4701 23.3994 18.2832C23.3994 17.4993 23.151 17.0915 22.6543 17.0596C22.2943 17.0413 21.998 17.2077 21.7656 17.5586C21.5332 17.9095 21.3851 18.4176 21.3213 19.083C21.2575 19.7438 21.2256 20.1562 21.2256 20.3203ZM12.5439 28.4629L11.9424 28.3945C11.4365 28.3854 11.0286 28.6247 10.7188 29.1123L9.86426 34H7.9707L9.25586 26.6035L11.0264 26.5967L10.876 27.4102C11.0993 27.0547 11.318 26.8063 11.5322 26.665C11.7464 26.5192 11.9766 26.4463 12.2227 26.4463C12.3685 26.4463 12.5622 26.4805 12.8037 26.5488L12.5439 28.4629ZM16.208 26.4668C16.9554 26.485 17.5387 26.738 17.958 27.2256C18.3773 27.7132 18.6074 28.3672 18.6484 29.1875V29.6729C18.5892 31.1038 18.2451 32.2135 17.6162 33.002C16.9919 33.7858 16.1761 34.1641 15.1689 34.1367C14.5811 34.123 14.0957 33.9658 13.7129 33.665C13.3301 33.3597 13.0544 32.9382 12.8857 32.4004C12.7217 31.8626 12.6761 31.2451 12.749 30.5479L12.79 30.1787C12.9222 29.0166 13.2936 28.1029 13.9043 27.4375C14.515 26.7676 15.2829 26.444 16.208 26.4668ZM14.6084 31.3203C14.6084 32.1087 14.8499 32.5166 15.333 32.5439C15.9893 32.5804 16.4154 32.0791 16.6113 31.04L16.6865 30.5479C16.7503 29.8916 16.7822 29.4701 16.7822 29.2832C16.7822 28.4993 16.5339 28.0915 16.0371 28.0596C15.6771 28.0413 15.3809 28.2077 15.1484 28.5586C14.916 28.9095 14.7679 29.4176 14.7041 30.083C14.6403 30.7438 14.6084 31.1562 14.6084 31.3203ZM22.8594 33.3232C22.3945 33.8792 21.8522 34.1527 21.2324 34.1436C20.7493 34.139 20.362 33.9772 20.0703 33.6582C19.7786 33.3346 19.61 32.8949 19.5645 32.3389C19.5371 32.0153 19.5394 31.6986 19.5713 31.3887L20.3711 26.6035H22.2578L21.458 31.416L21.4375 31.751C21.4193 31.9788 21.4512 32.1634 21.5332 32.3047C21.6198 32.446 21.7474 32.5189 21.916 32.5234C22.2897 32.5371 22.6315 32.348 22.9414 31.9561L23.8711 26.6035H25.7783L24.4932 34H22.7363L22.8594 33.3232ZM29.292 34.1367C28.7132 34.1185 28.262 33.8701 27.9385 33.3916L27.2822 36.8438H25.3955L27.1729 26.6035L28.8955 26.5967L28.793 27.2803C29.2441 26.7243 29.7568 26.4508 30.3311 26.46C30.9782 26.4691 31.4613 26.7152 31.7803 27.1982C32.0993 27.6813 32.2428 28.374 32.2109 29.2764C32.1745 30.3382 32.0378 31.2406 31.8008 31.9834C31.5638 32.7217 31.2311 33.2708 30.8027 33.6309C30.3789 33.9909 29.8753 34.1595 29.292 34.1367ZM30.3379 29.2559C30.3379 28.8275 30.2809 28.5267 30.167 28.3535C30.0576 28.1803 29.8844 28.0892 29.6475 28.0801C29.3102 28.071 29.0026 28.2373 28.7246 28.5791L28.1094 32.0654C28.2552 32.3617 28.5104 32.5189 28.875 32.5371C29.5768 32.5736 30.0098 32.029 30.1738 30.9033L30.3242 29.5088L30.3379 29.2559Z" fill="#333333"/>
</g>
<defs>
<clipPath id="clip0">
<rect width="71" height="36" fill="white"/>
</clipPath>
</defs>
</svg>
