<?xml version="1.0" standalone="no"?>
<!DOCTYPE svg PUBLIC "-//W3C//DTD SVG 1.1//EN" "http://www.w3.org/Graphics/SVG/1.1/DTD/svg11.dtd">
<svg xmlns="http://www.w3.org/2000/svg">
<metadata>Copyright (C) 2020 by original authors @ fontello.com</metadata>
<defs>
<font id="tag-icon-pack" horiz-adv-x="1000" >
<font-face font-family="tag-icon-pack" font-weight="400" font-stretch="normal" units-per-em="1000" ascent="850" descent="-150" />
<missing-glyph horiz-adv-x="1000" />
<glyph glyph-name="arrow-menu-down" unicode="&#xe800;" d="M430 280l-430 429 71 71 70 70 360-360 360-360 360 360 360 360 71-70 70-71-430-429c-236-237-430-430-431-430-1 0-195 193-431 430z" horiz-adv-x="1722" />

<glyph glyph-name="arrow-more" unicode="&#xe801;" d="M2216-105l-45 45 170 169c93 93 169 172 169 174 0 2-565 4-1255 4h-1255v65 64h1259 1260l-173 172-172 173 45 44 45 45 250-251 251-250-249-250c-137-137-251-249-252-249-2 0-23 20-48 45z" horiz-adv-x="2765" />

<glyph glyph-name="arrow-right" unicode="&#xe802;" d="M41-109l-41 40 209 210 210 209-210 209-209 210 41 40 40 41 250-250 250-250-250-250-250-250z" horiz-adv-x="581" />

<glyph glyph-name="arrow-select" unicode="&#xe803;" d="M439 289l-439 438 62 62 62 61 377-379 377-378 377 377 378 378 62-61 61-62-437-437c-241-241-439-438-440-438-1 0-199 197-440 439z" horiz-adv-x="1756" />

<glyph glyph-name="burger" unicode="&#xe804;" d="M0-111v39h769 769v-39-39h-769-769z m231 461v38h538 537v-38-37h-537-538z m-231 461v39h769 769v-39-39h-769-769z" horiz-adv-x="1538" />

<glyph glyph-name="car-engine" unicode="&#xe805;" d="M385-147c-11 4-22 14-28 25-5 8-5 14-6 47l-1 38-16 7c-19 10-43 32-57 52-5 8-11 22-14 32l-6 19-15 4c-80 20-138 98-138 182 0 53 17 95 52 133l13 13-10 10-9 9-16-15c-16-16-24-19-32-13-8 6-90 120-96 132-5 11-6 16-6 33 0 35 2 38 84 120 75 75 76 75 87 63 12-12 12-12-63-88-58-58-70-71-72-79-7-23-3-34 30-77 4-5 11 2 145 137 78 78 142 142 142 142 0 3-38 30-47 33-4 2-12 4-16 4-19 0-26-4-51-29-27-26-32-28-42-18-11 10-9 15 17 42 28 28 43 37 68 39 30 2 38-3 107-54 34-24 62-46 64-48 6-9 3-16-13-33l-15-16 58-58 58-58h43 42l58 58 58 58-15 16c-16 17-19 24-13 33 2 2 30 24 64 48 68 51 78 56 107 54 31-3 28 0 154-125 131-131 128-127 128-164 0-17-1-22-6-33-6-12-91-129-96-133-8-5-16-1-32 14l-16 15-9-9-10-10 13-13c20-21 35-47 44-73 13-40 11-94-5-132-14-33-26-44-39-37-13 6-12 13 1 39 15 29 18 44 16 78-1 23-2 30-8 46-8 21-23 45-37 59l-9 9-12-12-12-12 12-12c22-24 33-52 33-84 0-23-5-42-14-58-8-16-30-39-45-48-12-7-13-8-16-21-1-7-4-16-5-20l-2-6 13 5c7 2 19 8 26 12 16 9 24 10 31 3 6-7 6-17-1-23-13-13-56-31-87-35-7-1-14-4-19-8-9-8-30-19-46-24l-13-3-1-68c0-38-1-72-2-77-6-29-41-48-68-37-10 4-22 16-27 25-3 5-4 6-15 6-12 0-13 0-15-7-4-9-20-22-30-25-24-7-49 4-61 26-3 5-4 6-14 6-10 0-12-1-15-6-13-24-43-35-67-23-10 4-26 21-26 26 0 2-3 3-12 3-12 0-13-1-16-6-5-9-17-21-27-25-10-4-25-4-36 0z m29 36c5 5 5 7 5 35v30l-16 0-16 0 0-31c0-27 1-30 5-34 6-6 15-6 22 0z m121 1l5 5v68 68l-17-16-17-16 0-52 0-52 6-5c3-3 8-6 11-6 3 0 8 3 12 6z m121 0l5 5 0 69-1 70-16 0-17 1v-70-70l6-5c7-8 15-8 23 0z m119-1c5 4 5 7 5 75v71h-16-16v-70c0-69 0-71 5-76 6-6 16-7 22 0z m-303 56c0 14-1 26-1 26-1 0-5-2-10-4l-8-4v-22-23h10 9z m121 32v58h-9-10v-58-59h10 9z m121 0v58h-9-10v-58-59h10 9z m-292 13c16 2 44 17 57 30 28 30 40 69 30 105-5 21-14 38-29 53-22 22-48 33-79 33-32 0-57-11-79-33-43-44-44-112 0-156 11-12 26-22 40-27 11-4 35-8 43-7 4 1 11 2 17 2z m-41 62c-34 15-42 59-16 85 26 25 66 17 84-18 5-9 4-31-2-42-5-11-16-21-27-25-9-4-30-4-39 0z m31 34c10 7 7 27-5 30-9 2-17-1-21-8-6-12 1-25 15-25 3 0 8 1 11 3z m290-6c-12 14-22 36-25 54-5 30 0 32-52-19l-47-46 67 0 67 0-10 11z m133-4c37 17 58 57 52 96-6 41-35 69-76 76-37 6-77-15-94-50-6-12-7-16-7-39 0-22 1-26 6-38 11-22 30-40 53-48 18-6 49-5 66 3z m-57 36c-37 15-42 67-9 89 19 12 39 12 57 1 35-22 30-75-8-91-10-4-30-4-40 1z m30 33c6 3 9 13 6 20-6 14-27 14-31 0-6-16 9-29 25-20z m-79 117c7 5 21 12 30 15l18 6-48 35-48 34-2-16c-2-28-20-57-43-72-23-14-58-19-83-10-33 11-60 43-64 74l-2 10-48-46-48-46 20-1c38-3 65-16 93-43 27-27 43-65 43-102l0-13 85 83c46 45 90 87 97 92z m-471-135l2 14-19 10c-16 7-23 13-34 25-25 26-35 49-35 85 0 32 12 60 34 84l11 12-12 12-12 12-13-14c-28-30-40-58-41-100-1-32 2-48 14-73 18-39 50-68 89-82 8-3 12-3 12-1 1 1 2 9 4 16z m22 55c3 4 9 11 13 15l8 9-16 48-15 49-14 15-15 14-10-10c-6-6-13-17-17-24-5-12-6-15-6-37 0-23 0-25 7-39 9-18 26-34 43-42 15-7 16-7 22 2z m657 18c6 6 13 17 16 24 6 11 6 16 6 37 0 23 0 25-7 38-4 8-12 19-17 24l-9 9-14-14c-13-13-15-15-22-39l-9-26 10-11c11-13 22-32 26-47 4-11 6-11 20 5z m-513 125c51 51 97 95 101 98 28 21 68 25 100 10 7-4 60-41 118-83 58-42 106-77 107-77 2-1 12 31 12 36 0 2-53 57-118 122l-118 118h-42-43l-119-120-119-119 13-38c6-21 13-38 13-38 1 0 44 41 95 91z m185-36c41 18 49 73 15 104-12 10-23 14-42 14-18 0-27-3-40-15-33-31-25-85 17-104 13-6 36-6 50 1z m-211 164l112 113-54 55-55 54-13-13-13-13 26-27c15-14 28-30 30-34 16-30-2-65-37-72-4-1-12-1-19 1-11 2-14 5-42 32l-29 29-16-16-16-16 26-26c15-15 29-31 31-35 12-24 2-54-23-67-12-6-33-7-44-1-5 3-20 16-35 31l-27 26-13-12-12-13 54-54c30-30 55-54 55-54 1 0 52 51 114 112z m540-58l54 54-12 13-13 12-28-27c-23-23-30-29-40-32-42-14-81 31-60 71 2 4 15 19 30 34l26 26-16 16-15 16-30-29c-27-27-31-30-42-32-41-10-75 33-56 71 2 4 15 20 30 34l26 27-13 13-13 13-55-54-54-55 112-113c62-61 113-112 114-112 0 0 25 24 55 54z m-526 342c-1 1-7 5-15 11l-14 10-145-145c-80-80-146-147-145-148 0-1 5-8 10-15l9-13 150 150c83 82 150 150 150 150z m653-285c5 6 10 13 10 14 0 1-66 67-146 147l-145 145-15-10-14-11 149-149c82-82 150-149 150-149 1 0 6 6 11 13z m-770 0c10 10 7 17-24 48l-23 22-12-11-11-12 27-26c29-29 33-31 43-21z m620 21l27 26-11 12-12 11-23-22c-31-31-34-38-24-48 10-10 14-8 43 21z m198 44c17 22 21 31 21 44 0 20-4 25-120 141-94 93-111 109-119 111-13 4-24 4-34 0-6-3-38-25-46-32-1-1 52-56 140-143 78-78 142-142 142-142 1 0 8 9 16 21z m-714 39c8 10 4 17-25 46l-23 23-12-11-11-12 27-27c25-24 28-27 34-25 3 1 8 3 10 6z m413 19l27 27-11 12-11 11-26-25c-14-14-25-27-26-30-3-10 6-21 17-21 2 0 15 12 30 26z" horiz-adv-x="1167" />

<glyph glyph-name="clock" unicode="&#xe806;" d="M462-149c-4 0-15 1-25 3-64 7-139 33-197 69-29 17-61 42-88 68-83 81-132 178-149 298-4 23-4 100 0 124 7 54 23 106 46 154 25 52 51 90 92 131 81 84 178 132 297 150 23 3 100 3 124-1 55-7 107-23 154-46 53-25 90-51 132-92 84-81 132-178 149-297 3-23 3-100 0-124-12-89-45-169-98-239-21-28-58-66-84-88-72-57-152-92-245-107-19-3-95-5-108-3z m103 66c142 22 266 113 328 241 20 41 31 76 40 124 5 32 6 99 0 132-15 98-60 186-131 253-65 62-142 100-234 116-32 6-99 6-132 1-99-16-185-60-253-132-62-64-100-142-116-233-6-33-6-100-1-132 20-126 88-232 194-303 59-39 125-62 198-70 22-2 84-1 107 3z m2 322l-99 99v162 163h32 31v-150-150l89-89 89-89-22-22-22-22z" horiz-adv-x="999" />

<glyph glyph-name="close" unicode="&#xe807;" d="M38-111l-38 38 211 212 211 211-210 211c-116 116-211 211-211 212 0 3 73 76 76 76 1 0 97-95 212-211l211-210 211 211 212 211 38-38 38-39-211-211-211-211 211-212 212-212-39-38-39-39-211 212-212 211-211-211-211-211z" horiz-adv-x="1000" />

<glyph glyph-name="filters" unicode="&#xe808;" d="M871-149c-24 5-34 13-84 64-27 27-49 51-50 54l-2 6h-353c-321 0-354 0-362 4-27 13-27 53 0 65 10 5 22 5 363 5l352 0 6 10c3 6 26 31 51 56 56 54 59 56 96 56 39 0 45-3 98-56 24-23 47-48 51-54l7-12h95c92 0 94 0 105-6 14-7 20-18 19-34-1-14-9-25-20-30-8-4-21-4-104-4h-95l-7-12c-4-6-27-31-51-54-35-36-45-44-58-50-18-8-40-11-57-8z m27 75c10 6 76 74 78 81 2 11-3 18-41 56-49 48-43 48-94-4-35-35-39-39-39-47 0-7 4-12 37-47 34-34 43-41 50-42 1 0 5 2 9 3z m-568 260c-7 1-18 5-24 8-14 7-94 85-104 102l-8 12h-83c-91 0-94 1-105 16-8 11-8 32 0 42 11 16 14 16 106 16h82l7 11c9 16 94 98 108 105 27 12 62 11 88-4 14-8 94-88 101-101l6-11h365c332 0 366 0 374-4 26-12 27-52 1-65-10-5-14-5-375-5h-365l-7-10c-3-6-26-30-50-55-47-46-57-53-83-58-17-3-16-3-34 1z m68 112c35 35 38 40 38 47 0 8-4 13-38 48-52 51-46 51-94 3-35-34-43-44-43-52 0-3 18-23 40-45 37-37 41-40 49-40 8 0 12 3 48 39z m219 232c-19 6-32 16-74 58-25 25-47 49-50 54l-6 9h-228c-249 0-236 0-251 15-6 7-7 10-7 22 0 17 5 25 18 33 8 4 20 4 238 4l230 0 7 13c11 18 89 94 104 102 27 13 57 14 84 1 15-6 96-85 108-104l7-12h219c180 0 219 0 226-3 19-8 27-35 16-51-3-4-9-10-13-13-7-5-8-5-228-6l-222-1-3-8c-2-4-24-28-49-54-55-55-62-59-98-60-12-1-25 0-28 1z m73 112c22 22 40 42 40 45 0 8-8 18-41 51-34 33-43 41-52 38-2-1-22-19-43-40-36-35-39-40-39-48 0-7 4-12 39-47 35-36 40-39 48-39 7 0 12 3 48 40z" horiz-adv-x="1263" />

<glyph glyph-name="filters-close" unicode="&#xe809;" d="M28-122l-28 27 222 223 223 222-223 222-222 223 28 27 27 28 223-222 222-223 222 223 223 222 27-28 28-27-222-223-223-222 223-222 222-223-28-27-27-28-223 222-222 223-222-223-223-222z" horiz-adv-x="1000" />

<glyph glyph-name="four-wheel-drive" unicode="&#xe80a;" d="M35-149c-9 2-17 7-24 15-12 13-11 7-11 143l1 119 4 8c2 4 7 10 11 13 12 11 14 11 73 11 51-1 53-1 59-4 8-4 16-12 20-20 3-6 3-8 4-60l0-53 80 0 80 0 3 6c3 8 13 18 21 22l6 3 0 296 0 297-6 3c-9 5-16 12-21 21l-4 7h-79-80v-51c0-57 0-59-10-71-4-4-10-9-14-11l-8-4-51 0c-44-1-52 0-58 2-11 3-21 12-26 22l-4 9v122c0 120 0 121 3 128 4 10 11 17 21 22l8 4h54 53l8-4c4-2 10-7 14-11 10-12 10-14 10-71v-51h80 79l4 7c6 10 15 19 24 23 11 4 29 5 39 1 11-4 21-13 27-23l4-8h80 79v51c0 57 0 59 10 71 4 3 10 8 14 11l8 4h54 53l8-4c10-5 17-12 22-22 3-7 3-8 3-126 1-119 0-120-3-129-4-11-14-21-25-26-9-3-11-3-61-2l-51 0-8 4c-4 2-10 7-13 11-11 12-11 14-11 71v51h-79-80l-4-7c-5-10-12-16-21-21l-6-3v-297-296l6-3c8-4 18-14 22-22l2-6 80 0 80 0 0 53c1 52 1 54 4 60 5 8 12 16 20 20 6 3 8 3 59 4 60 0 62 0 74-11 4-3 8-9 11-13l4-8 0-119c0-109 0-121-2-128-3-11-14-22-25-27-7-4-8-4-59-4-51 0-53 0-59 4-11 5-17 11-22 21l-5 9v52 52h-79-79l-7-10c-11-17-28-26-47-24-17 1-34 13-42 28l-3 6h-79-80v-52-52l-4-9c-6-10-11-15-23-21l-8-4-48 0c-27 0-51 0-54 1z m100 37c2 2 3 5 3 12v8l-26 13-26 13-26-13-26-13v-7c0-6 1-9 3-12l3-4h46c44 0 46 0 49 3z m588 1c3 3 3 6 3 12l0 7-26 13-26 13-26-13-26-13v-8c0-5 1-10 3-12 2-3 2-3 49-3h46z m-664 70c14 7 26 12 27 12 2 0 14-5 27-12 13-6 24-11 24-11 1 0 1 6 1 14v15l-26 13-26 13-26-13-26-13v-15c0-8 0-14 1-14 0 0 11 5 24 11z m589 0c13 7 25 12 26 12 2 0 14-5 27-12 13-6 24-11 25-11 0 0 0 6 0 14v15l-26 13-26 13-26-13-26-13v-15c0-8 1-14 1-14 0 0 11 5 25 11z m-258 32c6 4 8 12 7 19-3 8-8 12-16 12-9 0-15-4-17-12-4-16 13-27 26-19z m-304 49c3 0 14-5 28-12l24-12v15 15l-26 13-26 13-26-13-26-13v-15-15l24 12c14 7 25 12 28 12z m588 0c3 0 15-6 28-12l24-12 0 15 0 15-26 13-26 13-26-13-26-13v-15-15l24 12c13 7 26 12 28 12z m-617 57c13 6 24 11 27 12 4 0 9-1 29-11 13-7 24-12 24-12 1 0 1 7 1 17 0 25 4 23-52 23h-46l-3-4c-3-3-3-6-3-20 0-9 0-16 1-16 0 0 10 5 22 11z m589 0c16 8 25 11 28 11 4 0 13-3 28-11 13-6 23-11 24-11 0 0 0 7 0 16 0 14 0 17-3 20l-3 4h-46c-56 0-52 2-52-23 0-10 1-17 1-17 0 0 11 5 23 11z m-512 481c4 2 4 4 4 12v9l-24 12c-14 7-26 13-27 13-1 0-14-6-28-13l-25-13v-8c0-7 1-9 4-12l3-4h45c42 0 44 1 48 4z m589 0c3 3 3 5 3 12v8l-26 13-26 14-26-13-26-13v-9c0-8 1-10 4-12 4-3 6-4 49-4h44z m-664 72c13 6 24 11 27 11 2 0 15-5 27-11 13-7 24-12 24-12 1 0 1 7 1 15v14l-26 13-26 13-26-13-26-13v-14c0-9 1-15 2-15 0 0 11 5 23 12z m587 0c15 7 24 11 28 11 3 0 12-4 27-11 12-7 23-12 24-12 1 0 1 6 1 15v14l-26 14-27 13-25-13-26-13v-15c0-8 1-15 1-15 0 0 11 5 23 12z m-256 32c7 6 9 13 6 19-6 15-26 16-31 1-7-16 12-31 25-20z m-331 37c14 6 26 11 27 11 2 0 14-5 27-11 13-7 24-12 24-12 1 0 1 6 1 15v14l-26 13-26 13-26-13-26-13v-14c0-9 0-15 1-15 0 0 11 5 24 12z m612 11c5 1 9-1 30-11 13-7 24-12 25-12 0 0 0 6 0 15v14l-25 13c-14 7-26 13-27 13-1 0-13-6-27-12l-25-13v-15-15l22 11c12 6 25 11 27 12z m-533 62c0 16 0 18-4 21l-3 4h-45c-55 0-51 1-52-23 0-12 0-17 1-17 1 0 12 5 24 11 15 7 24 11 27 11 3 0 14-5 28-12 13-7 23-12 24-12 0 0 0 8 0 17z m536 7c3 0 15-5 29-12l24-12-1 18c-1 26 3 24-52 24-55 0-52 1-52-24v-18l24 12c14 7 26 12 28 12z" horiz-adv-x="760" />

<glyph glyph-name="gear-box" unicode="&#xe80b;" d="M5-145l-5 5v434 433l5 5 5 5h92 92v36c0 42 2 50 14 63 14 14 14 14 131 14 117 0 116 0 131-14 12-13 14-21 14-63v-36h92 92l5-5 4-5v-116-116h33 32v28c0 26 0 27 5 32 5 4 6 5 28 5 27 0 38-3 49-15 32-31 8-82-37-82l-13 0v-24-24h-16-16v24 24h-32-33v-73-72h33 32v27c0 26 0 28 5 32 5 5 6 5 28 5 27 0 38-3 49-14 19-19 19-46 1-66l-8-10 4-5c7-8 15-28 17-39l1-11h-16c-16 0-17 0-17 5 0 6-7 21-13 28-5 5-15 12-18 12 0 0-1-10-1-23v-22h-16-16v24 25h-32-33v-65-64h33 32v19c0 17 0 19 5 24 5 5 12 6 18 4 2-1 12-14 23-30l19-29v30 30h16 16v-60-59l-5-5c-5-5-12-6-18-4-2 1-12 14-23 30l-19 28v-29-30h-16-16v24 24h-32-33v-64-65h33 32v19c0 18 0 20 5 25 5 5 6 5 25 4 23-1 35-6 48-19 13-13 18-25 18-45 0-15-1-19-6-28-7-13-17-23-30-30-9-4-14-5-30-6-19-1-20-1-25 4-5 5-5 7-5 25v19h-32-33v-52-51l-4-5-5-5h-329-329z m640 439v411h-80-81v-16-16h59 60l5-5 5-5v-369-370l-5-5-5-5h-264-265l-4 5-5 5v370 369l5 5 4 5h60 60v16 16h-81-81v-411-412h307 306z m-64 0v346h-49c-43 0-48 0-48-3 0-13-14-34-26-39l-6-2v-30c0-28 0-29-5-34-5-4-6-5-33-5h-27v-48-48h27c27 0 28 0 33-5l5-5v-200-200l-5-5-5-5h-103-103l-5 5-5 5v200 200l5 5c5 5 6 5 32 5h27v48 48h-27c-26 0-27 1-32 5-5 5-5 6-5 34v30l-6 2c-12 5-26 26-26 39 0 3-5 3-49 3h-48v-346-347h242 242z m-452-299v16h16 16v-16-16h-16-16z m387 0v16h16 16v-16-16h-16-16z m271-45c4 1 9 6 13 10 5 6 5 10 5 19 0 9-1 13-4 17-5 8-13 13-20 15l-7 1v-33c0-36 0-35 13-29z m-368 271v177h-16-16v-99-100l-5-5c-5-5-5-5-43-5-38 0-39 0-44 5l-5 5v100 99h-16-16v-177-177h81 80z m-64 153v153h-16-16v-153-153h16 16z m447-51c3 3 5 7 5 11 0 10-8 16-22 16h-11v-16-16h11c10 0 12 1 17 5z m0 177c3 3 5 7 5 11 0 11-8 16-22 16h-11v-16-16h11c10 0 12 1 17 5z m-383 76v16h-80-81v-16-16h81 80z m28 53l5 5v87 87l-5 5-5 5h-103-103l-5-5-5-5v-87-87l5-5 5-5h103 103z" horiz-adv-x="839" />

<glyph glyph-name="instagram" unicode="&#xe80c;" d="M311-149c-22 1-66 6-86 10-71 15-129 51-167 104-35 50-51 103-56 195-3 43-3 344 0 385 5 88 22 143 57 192 12 17 46 49 63 60 38 25 78 39 132 47 36 5 147 7 298 6 172-2 199-3 249-17 104-30 169-104 190-217 8-44 9-71 9-266 0-189-1-221-8-259-21-122-91-199-202-227-50-12-111-14-319-14-81 0-153 1-160 1z m398 92c13 2 31 4 40 5 87 15 138 67 153 154 6 37 7 64 8 202 1 150-1 251-6 286-13 89-56 137-138 158-45 11-52 11-249 12-113 0-195 0-217-1-53-3-82-10-113-25-55-27-83-75-94-161-3-23-4-51-5-205-1-223 1-251 17-300 17-52 52-90 100-107 34-13 69-17 141-20 67-2 336 0 363 2z m-251 154c-73 13-131 52-172 112-16 24-27 49-34 78-8 30-10 74-5 104 9 55 33 101 73 141 50 49 110 74 180 74 69 0 128-24 178-72 47-44 73-100 78-163 6-78-22-151-78-206-39-37-82-59-135-68-21-4-65-4-85 0z m75 90c35 7 60 21 86 47 19 18 31 39 40 65 6 18 6 20 6 51 0 31 0 33-6 51-10 29-20 45-41 66-37 36-74 51-126 49-20-1-27-2-42-7-70-24-116-87-116-159 0-55 28-108 73-138 22-14 46-24 69-27 14-2 43-1 57 2z m216 373c-32 10-49 46-38 77 5 14 16 26 28 33 9 5 12 5 28 5 21 0 32-4 45-19 10-11 15-23 15-40 0-40-40-68-78-56z" horiz-adv-x="1000" />

<glyph glyph-name="more" unicode="&#xe80d;" d="M459 79l-1 229-229 1-229 0v41 41l229 1 229 0 1 229 0 229h41 41l1-229 0-229 229 0 229-1v-41-41l-229 0-229-1 0-229-1-229h-41-41z" horiz-adv-x="1000" />

<glyph glyph-name="phone" unicode="&#xe80e;" d="M792-146c-134 19-255 64-370 138-211 134-359 350-409 595-9 44-14 88-13 105 4 48 36 90 82 107 12 5 15 5 102 6 99 0 102 0 129-13 25-12 49-39 59-66 2-6 6-23 8-38 6-34 13-61 25-96 9-27 9-29 9-52 1-41-8-60-46-99l-26-27 16-23c47-70 110-134 180-181l24-16 25 24c38 39 59 49 100 49 24-1 25-1 56-11 32-11 65-19 100-25 11-1 25-5 31-7 36-14 66-47 76-85 4-18 4-178 0-196-12-45-49-81-94-90-19-4-31-4-64 1z m64 69c12 6 20 15 26 28 4 8 4 15 4 90 0 90 0 90-14 106-10 10-21 15-48 19-29 5-73 16-104 27-27 9-35 9-52 5-10-4-14-7-46-39-20-19-38-36-41-37-2-2-9-3-14-3-10 0-14 2-39 18-100 61-186 148-247 248-12 21-14 25-14 34 0 5 1 12 2 15 2 2 18 20 37 39 18 19 35 38 37 42 8 16 7 27-4 60-11 34-20 71-25 103-5 32-14 47-34 56-9 4-14 4-90 4-80 0-81 0-91-5-14-6-25-19-30-34-4-14-3-25 5-71 36-213 154-410 325-539 119-90 252-146 399-168 32-5 44-5 58 2z m-214 550c-9 3-21 16-23 26-2 17-1 18 135 155 70 70 128 128 128 129 0 0-44 1-97 1-107 0-106 0-116 15-3 5-5 10-5 17 0 13 4 21 14 28l8 6h144 145l7-5c4-2 9-7 12-11 4-7 4-11 4-148l1-141-5-10c-6-12-16-18-28-18-12 0-23 5-29 14l-5 7v98c0 54-1 98-2 98 0 0-59-57-129-128-86-86-130-129-136-131-9-5-13-5-23-2z" horiz-adv-x="999" />

<glyph glyph-name="play" unicode="&#xe80f;" d="M70 62c177 527 265 787 266 788 1 1 866-497 866-499 0-1-270-114-600-251-330-137-601-250-602-250-1-1 31 95 70 212z m540 94c266 110 484 201 484 202 0 3-729 422-731 420-1-1-285-841-285-843 0 0 11 4 24 9 14 6 242 101 508 212z" horiz-adv-x="1202" />

<glyph glyph-name="search" unicode="&#xe810;" d="M938-145c-5 3-72 70-151 149l-142 142-15-11c-54-40-121-66-190-74-29-3-87-2-115 4-193 36-332 208-325 403 4 92 35 173 95 244 50 60 125 107 201 126 39 10 56 12 101 12 44 0 61-2 99-12 157-40 274-174 294-337 3-24 2-75-1-100-4-24-12-57-20-80-11-33-38-82-58-107l-7-8 147-146c80-81 147-149 148-152 5-11 2-17-19-38-16-16-20-19-27-20-6-1-9 0-15 5z m-516 288c41 4 76 14 112 31 140 69 208 231 159 379-7 23-28 64-43 85-17 24-48 54-71 71-21 15-62 36-85 43-36 12-52 14-97 14-47 0-65-3-101-15-68-23-131-73-169-136-21-35-36-80-41-122-4-26-2-77 3-101 30-136 142-237 280-249 25-2 29-2 53 0z" horiz-adv-x="1001" />

<glyph glyph-name="settings" unicode="&#xe811;" d="M278-144c-20 10-28 25-28 52 0 8-1 16-2 19-2 4-25 15-32 15-3 0-9-4-18-12-15-14-27-20-41-20-19 0-27 5-59 36-32 33-38 42-38 61 0 15 5 26 21 42 7 8 11 13 11 17 0 7-11 30-15 32-2 1-12 2-21 2-14 0-18 1-28 6-13 7-22 17-26 30-3 13-3 87 1 97 4 13 13 22 25 28 8 5 13 5 26 5 22 0 26 2 32 18 4 7 6 14 6 17 0 3-4 9-12 18-15 16-20 27-20 41 0 20 5 28 40 61 26 27 32 31 41 34 12 4 27 3 37-2 4-2 12-8 19-15 6-6 14-12 17-12 5-2 30 9 34 14 1 2 2 9 2 19 0 27 9 43 28 53 10 5 11 5 54 5 29 0 47-1 52-3 11-3 27-19 30-30 2-4 3-14 3-22 0-8 1-17 2-20 3-6 26-17 34-16 3 0 10 6 19 13 10 10 15 14 24 16 13 4 26 3 36-2 9-4 66-61 71-70 10-20 6-41-13-61-7-8-13-15-14-18-2-5 7-28 13-33 3-3 8-4 24-5 23-1 31-4 42-16 11-13 12-18 12-68v-44l-6-11c-6-11-18-22-29-25-4-1-14-2-21-2-22 0-24-1-33-24-2-4-3-10-2-12 1-3 6-11 13-17 6-7 12-15 14-19 5-9 6-24 2-36-3-11-5-14-33-43-35-34-42-39-61-39-15 0-26 5-42 20-7 6-15 12-17 12-2 0-10-3-17-5-16-7-18-11-18-33 0-14-1-18-6-27-6-12-18-22-29-25-4-1-26-2-50-2l-42 0z m96 29c7 4 9 9 10 28 1 30 9 42 37 54 29 13 48 10 70-11 11-11 14-12 20-12 7 0 10 2 33 25 14 13 27 27 28 30 5 9 2 14-12 29-20 22-23 37-11 66 8 19 14 26 25 33 8 4 12 5 26 6 22 1 25 2 30 7 3 4 4 7 4 44 0 39 0 40-5 44-4 5-7 5-19 5-33 0-48 11-61 41-11 26-9 44 10 64 14 14 17 19 15 26-2 7-53 58-60 60-7 2-14-2-25-14-18-19-38-22-64-12-32 14-39 24-41 58-2 29 0 27-50 27-21 0-40 0-41-1-6-2-9-11-9-26 0-29-11-45-38-56-30-13-46-10-68 10-14 14-20 17-29 12-3-1-16-14-30-28-23-23-25-26-25-33 0-6 2-9 13-21 21-23 24-41 9-72-7-14-10-19-18-24-10-8-22-11-40-11-24 0-25-1-25-50 0-37 0-38 5-43 5-5 6-6 25-7 31-1 44-11 55-39 12-29 9-44-12-66-10-12-12-15-12-21 0-7 2-9 28-35 26-26 28-28 35-28 6 0 9 2 22 13 22 20 37 23 64 11 31-12 39-23 40-55 2-19 2-21 7-25 5-5 6-5 43-5 22 0 38 1 41 2z m-76 153c-55 14-97 56-110 112-4 15-4 22-4 40 2 40 16 71 44 99 26 26 55 40 90 44 75 7 143-40 161-113 10-38 1-91-21-125-14-21-54-48-85-57-19-5-56-5-75 0z m57 31c25 5 52 21 68 40 11 13 22 35 25 50 3 14 2 39-1 53-11 41-46 75-85 85-17 4-42 4-58 0-50-13-87-61-87-113 0-73 66-128 138-115z m425-34c-7 3-16 11-42 37-33 32-34 33-34 41 0 7 1 9 5 13 11 8 14 7 51-29 27-25 35-32 39-32 5 0 13 8 46 41 37 36 41 41 41 47 0 6-3 9-24 31-14 14-26 28-28 31-2 4-4 12-4 18-1 9 0 13 4 24 3 7 9 21 13 32 9 23 17 34 30 40 9 4 13 5 46 6 34 0 36 1 40 5l5 4v56 56l-5 5-5 6-37 1c-37 1-38 1-47 6-13 7-18 15-27 38-4 11-10 25-13 32-4 10-5 15-4 24 0 6 2 14 4 17 2 4 14 18 28 32 21 21 24 25 24 31 0 6-4 10-41 47-37 37-41 41-47 41-6 0-10-3-31-25-14-13-28-25-32-27-3-2-11-4-17-4-9-1-14-1-24 4-7 3-21 9-32 13-23 9-30 14-38 27-5 9-5 10-6 47l-1 37-6 5-5 5h-55c-52 0-56 0-60-4-5-4-5-5-6-41-1-33-2-37-6-46-5-11-17-21-29-26-5-2-18-7-29-12-24-10-35-12-50-7-8 3-14 7-36 29-22 22-26 25-32 25-6 0-11-4-47-41-34-34-41-41-41-46 0-5 5-11 30-36 17-17 31-33 33-35 6-12-2-24-15-24-7 0-10 2-41 34-32 31-34 34-37 45-4 13-3 27 3 38 2 4 23 26 47 50 47 47 49 48 69 48 16 0 27-7 52-32 14-14 24-23 28-24 4-1 10 1 22 7 10 4 22 9 27 11 16 6 16 4 17 45 1 40 2 45 14 58 3 4 10 9 14 12 8 4 10 4 73 4 71 0 70 0 84-13 14-13 15-18 16-60 1-21 2-38 3-39 3-3 59-26 63-26 2 0 14 11 28 24 13 14 27 26 31 28 10 5 27 6 40 2 9-3 14-8 52-46 24-23 44-45 46-49 2-3 4-12 5-19 1-20-3-27-30-55-14-14-25-27-26-30-1-3 0-7 2-11 2-4 7-16 12-28 5-12 10-23 12-24 3-2 12-3 36-3 38 0 49-3 61-15 14-15 14-14 14-86 0-62 0-64-4-72-2-5-8-11-12-15-13-11-17-12-58-13-29-1-37-2-39-4-1-2-5-8-7-15-2-6-7-18-11-27-5-11-7-17-6-20 1-4 10-14 24-28 26-26 32-36 32-53 0-19-4-24-49-70-23-23-45-43-50-46-10-5-28-6-40-2z m-98 210c-2 1-4 5-5 9-3 8-1 12 10 24 35 38 53 92 47 143-8 64-46 118-103 146-26 12-47 17-80 17-17 0-30-1-39-3-32-8-61-23-84-45-10-8-13-10-19-10-10 0-16 7-16 17 0 6 2 8 13 18 51 48 128 67 198 50 76-20 136-79 156-154 19-72 0-150-50-203-9-9-12-11-18-11-3 0-8 1-10 2z" horiz-adv-x="1000" />

<glyph glyph-name="slope-square-lg" unicode="&#xe812;" d="M0-145c1 2 76 227 167 499l164 495 501 0 500 1-167-500-166-500h-500c-475 0-500 0-499 5z m1129 492c85 254 155 464 156 466 1 3-93 3-464 3h-465l-154-463c-85-254-155-464-155-466-1-3 92-3 463-3h465z" horiz-adv-x="1332" />

<glyph glyph-name="whatsapp" unicode="&#xe813;" d="M0-150c0 1 16 58 35 128l34 127-13 28c-35 70-49 131-51 210-2 66 5 112 26 172 61 182 227 313 420 333 34 4 99 2 131-4 91-16 173-54 242-113 95-82 156-196 170-323 4-33 1-106-4-137-31-175-152-321-316-382-59-22-110-31-174-31-77 0-144 15-215 48l-24 11-130-34c-72-19-131-34-131-33z m572 97c181 33 318 181 338 365 4 30 2 86-4 115-42 230-261 377-489 331-43-8-95-29-132-52-109-67-181-182-195-310-3-27-2-82 3-108 9-55 30-110 59-156 7-11 8-14 7-19-1-4-11-38-21-76-10-38-19-69-18-69 0-1 35 8 77 19l77 21 9-5c54-32 109-51 165-59 23-3 101-1 124 3z m25 172c-32 7-90 30-120 47-63 36-120 89-174 163-29 41-42 67-50 101-5 20-6 51-1 69 6 29 29 64 49 77 8 5 11 6 31 7 31 1 34-1 43-20 11-24 43-101 43-105 0-7-6-16-25-41-9-12-17-25-17-27 0-10 29-51 57-80 27-28 55-48 90-65 16-8 32-15 36-16 6-1 8-1 17 9 5 6 16 18 23 28 22 28 21 27 30 27 8 0 47-17 96-43l26-12-1-19c0-38-12-61-45-82-25-15-40-20-69-21-18 0-30 0-39 3z" horiz-adv-x="996" />

<glyph glyph-name="youtube" unicode="&#xe814;" d="M511-149c-146 7-278 21-321 33-76 22-134 80-159 158-7 23-19 102-26 171-7 63-7 212 0 275 7 75 19 148 27 173 24 77 86 136 163 157 30 9 140 21 251 29 64 4 343 4 407 0 122-9 223-21 256-30 75-22 136-82 159-158 8-23 20-103 27-171 6-63 6-212 0-275-7-70-19-148-26-171-24-76-82-134-155-157-42-13-167-26-306-33-46-2-255-3-297-1z m289 82c130 6 259 20 294 31 41 13 77 49 93 92 7 19 15 64 22 125 16 140 13 263-9 406-9 61-19 82-50 113-34 33-52 40-129 49-109 14-185 18-328 20-156 2-267-3-392-17-73-8-87-11-113-24-36-18-65-51-79-91-8-23-22-127-26-204-4-57-2-162 4-220 5-53 15-125 20-142 10-34 31-65 57-84 30-23 51-29 137-38 56-7 131-13 189-15 65-3 246-4 310-1z m-300 192c-6 3-14 9-17 13-5 7-5 9-5 212v205l6 8c8 11 19 17 34 17 10 0 23-7 175-97 90-54 168-102 172-106 14-14 14-38 0-53-8-9-318-195-335-201-12-5-17-5-30 2z m156 166c53 31 97 58 97 59 1 1-164 101-189 114l-6 4v-117c0-65 1-118 1-118 1 0 45 26 97 58z" horiz-adv-x="1299" />

<glyph glyph-name="arrow-left" unicode="&#xe815;" d="M250 100l-250 250 250 250 250 250 41-41 40-40-209-210-210-210 210-209 209-209-41-41-40-40z" horiz-adv-x="581" />

<glyph glyph-name="slope-square-xs" unicode="&#xe816;" d="M0-145c1 2 76 227 167 499l164 495 501 0 500 1-167-500-166-500h-500c-475 0-500 0-499 5z m989 492c60 181 110 331 111 333 1 3-65 3-323 3h-324l-110-330c-61-181-111-331-112-333-1-3 65-3 323-3h325z" horiz-adv-x="1332" />

<glyph glyph-name="slope-square-sm" unicode="&#xe817;" d="M0-145c1 2 76 227 167 499l164 495 501 0 500 1-167-500-166-500h-500c-475 0-500 0-499 5z m1095 493c79 237 144 431 144 432 0 1-194 2-430 2h-429l-144-430c-79-237-143-431-143-432 0-1 193-2 429-2h430z" horiz-adv-x="1332" />
</font>
</defs>
</svg>
